<svg viewBox="0 0 330 200" xmlns="http://www.w3.org/2000/svg"><g><g><g><g><g><line x1="37.72000217437744" y1="174.23999977111816" x2="32.72000217437744" y2="174.23999977111816" style="visibility: inherit;" fill="rgb(0, 0, 0)" stroke="rgb(204, 204, 204)" stroke-width="1px"></line><line x1="37.72000217437744" y1="156.81599979400636" x2="32.72000217437744" y2="156.81599979400636" style="visibility: inherit;" fill="rgb(0, 0, 0)" stroke="rgb(204, 204, 204)" stroke-width="1px"></line><line x1="37.72000217437744" y1="139.39199981689453" x2="32.72000217437744" y2="139.39199981689453" style="visibility: inherit;" fill="rgb(0, 0, 0)" stroke="rgb(204, 204, 204)" stroke-width="1px"></line><line x1="37.72000217437744" y1="121.96799983978272" x2="32.72000217437744" y2="121.96799983978272" style="visibility: inherit;" fill="rgb(0, 0, 0)" stroke="rgb(204, 204, 204)" stroke-width="1px"></line><line x1="37.72000217437744" y1="104.5439998626709" x2="32.72000217437744" y2="104.5439998626709" style="visibility: inherit;" fill="rgb(0, 0, 0)" stroke="rgb(204, 204, 204)" stroke-width="1px"></line><line x1="37.72000217437744" y1="87.11999988555908" x2="32.72000217437744" y2="87.11999988555908" style="visibility: inherit;" fill="rgb(0, 0, 0)" stroke="rgb(204, 204, 204)" stroke-width="1px"></line><line x1="37.72000217437744" y1="69.69599990844726" x2="32.72000217437744" y2="69.69599990844726" style="visibility: inherit;" fill="rgb(0, 0, 0)" stroke="rgb(204, 204, 204)" stroke-width="1px"></line><line x1="37.72000217437744" y1="52.27199993133546" x2="32.72000217437744" y2="52.27199993133546" style="visibility: inherit;" fill="rgb(0, 0, 0)" stroke="rgb(204, 204, 204)" stroke-width="1px"></line><line x1="37.72000217437744" y1="34.84799995422364" x2="32.72000217437744" y2="34.84799995422364" style="visibility: inherit;" fill="rgb(0, 0, 0)" stroke="rgb(204, 204, 204)" stroke-width="1px"></line><line x1="37.72000217437744" y1="17.423999977111805" x2="32.72000217437744" y2="17.423999977111805" style="visibility: inherit;" fill="rgb(0, 0, 0)" stroke="rgb(204, 204, 204)" stroke-width="1px"></line><line x1="37.72000217437744" y1="0" x2="32.72000217437744" y2="0" style="visibility: inherit;" fill="rgb(0, 0, 0)" stroke="rgb(204, 204, 204)" stroke-width="1px"></line></g><g transform="translate(27.72000217437744, 0)"><text style="text-anchor: end; visibility: hidden; font-family: &quot;Helvetica Neue&quot;, sans-serif; font-size: 12px; font-weight: 200;" x="0" y="174.23999977111816" dx="0em" dy="0.3em" fill="rgb(50, 49, 63)" stroke="none" stroke-width="1px">0</text><text style="text-anchor: end; visibility: inherit; font-family: &quot;Helvetica Neue&quot;, sans-serif; font-size: 12px; font-weight: 200;" x="0" y="156.81599979400636" dx="0em" dy="0.3em" fill="rgb(50, 49, 63)" stroke="none" stroke-width="1px">0.1</text><text style="text-anchor: end; visibility: hidden; font-family: &quot;Helvetica Neue&quot;, sans-serif; font-size: 12px; font-weight: 200;" x="0" y="139.39199981689453" dx="0em" dy="0.3em" fill="rgb(50, 49, 63)" stroke="none" stroke-width="1px">0.2</text><text style="text-anchor: end; visibility: inherit; font-family: &quot;Helvetica Neue&quot;, sans-serif; font-size: 12px; font-weight: 200;" x="0" y="121.96799983978272" dx="0em" dy="0.3em" fill="rgb(50, 49, 63)" stroke="none" stroke-width="1px">0.3</text><text style="text-anchor: end; visibility: hidden; font-family: &quot;Helvetica Neue&quot;, sans-serif; font-size: 12px; font-weight: 200;" x="0" y="104.5439998626709" dx="0em" dy="0.3em" fill="rgb(50, 49, 63)" stroke="none" stroke-width="1px">0.4</text><text style="text-anchor: end; visibility: inherit; font-family: &quot;Helvetica Neue&quot;, sans-serif; font-size: 12px; font-weight: 200;" x="0" y="87.11999988555908" dx="0em" dy="0.3em" fill="rgb(50, 49, 63)" stroke="none" stroke-width="1px">0.5</text><text style="text-anchor: end; visibility: hidden; font-family: &quot;Helvetica Neue&quot;, sans-serif; font-size: 12px; font-weight: 200;" x="0" y="69.69599990844726" dx="0em" dy="0.3em" fill="rgb(50, 49, 63)" stroke="none" stroke-width="1px">0.6</text><text style="text-anchor: end; visibility: inherit; font-family: &quot;Helvetica Neue&quot;, sans-serif; font-size: 12px; font-weight: 200;" x="0" y="52.27199993133546" dx="0em" dy="0.3em" fill="rgb(50, 49, 63)" stroke="none" stroke-width="1px">0.7</text><text style="text-anchor: end; visibility: hidden; font-family: &quot;Helvetica Neue&quot;, sans-serif; font-size: 12px; font-weight: 200;" x="0" y="34.84799995422364" dx="0em" dy="0.3em" fill="rgb(50, 49, 63)" stroke="none" stroke-width="1px">0.8</text><text style="text-anchor: end; visibility: inherit; font-family: &quot;Helvetica Neue&quot;, sans-serif; font-size: 12px; font-weight: 200;" x="0" y="17.423999977111805" dx="0em" dy="0.3em" fill="rgb(50, 49, 63)" stroke="none" stroke-width="1px">0.9</text><text style="text-anchor: end; visibility: hidden; font-family: &quot;Helvetica Neue&quot;, sans-serif; font-size: 12px; font-weight: 200;" x="0" y="0" dx="0em" dy="0.3em" fill="rgb(50, 49, 63)" stroke="none" stroke-width="1px">1</text></g><line x1="37.72000217437744" y1="0" x2="37.72000217437744" y2="174.23999977111816" fill="rgb(0, 0, 0)" stroke="rgb(204, 204, 204)" stroke-width="1px"></line></g></g><g transform="translate(37, 0)" clip-path="url(#clip_0)"><clipPath id="clip_0"><rect width="292" height="174"></rect></clipPath><g><g><g><line x1="0" y1="0" x2="0" y2="174.23999977111816" fill="rgb(0, 0, 0)" stroke="rgb(60, 60, 60)" stroke-width="1px" opacity="0.25"></line><line x1="29.227999782562257" y1="0" x2="29.227999782562257" y2="174.23999977111816" fill="rgb(0, 0, 0)" stroke="rgb(60, 60, 60)" stroke-width="1px" opacity="0.25"></line><line x1="58.455999565124515" y1="0" x2="58.455999565124515" y2="174.23999977111816" fill="rgb(0, 0, 0)" stroke="rgb(60, 60, 60)" stroke-width="1px" opacity="0.25"></line><line x1="87.68399934768676" y1="0" x2="87.68399934768676" y2="174.23999977111816" fill="rgb(0, 0, 0)" stroke="rgb(60, 60, 60)" stroke-width="1px" opacity="0.25"></line><line x1="116.91199913024903" y1="0" x2="116.91199913024903" y2="174.23999977111816" fill="rgb(0, 0, 0)" stroke="rgb(60, 60, 60)" stroke-width="1px" opacity="0.25"></line><line x1="146.13999891281128" y1="0" x2="146.13999891281128" y2="174.23999977111816" fill="rgb(0, 0, 0)" stroke="rgb(60, 60, 60)" stroke-width="1px" opacity="0.25"></line><line x1="175.36799869537353" y1="0" x2="175.36799869537353" y2="174.23999977111816" fill="rgb(0, 0, 0)" stroke="rgb(60, 60, 60)" stroke-width="1px" opacity="0.25"></line><line x1="204.59599847793578" y1="0" x2="204.59599847793578" y2="174.23999977111816" fill="rgb(0, 0, 0)" stroke="rgb(60, 60, 60)" stroke-width="1px" opacity="0.25"></line><line x1="233.82399826049806" y1="0" x2="233.82399826049806" y2="174.23999977111816" fill="rgb(0, 0, 0)" stroke="rgb(60, 60, 60)" stroke-width="1px" opacity="0.25"></line><line x1="263.05199804306034" y1="0" x2="263.05199804306034" y2="174.23999977111816" fill="rgb(0, 0, 0)" stroke="rgb(60, 60, 60)" stroke-width="1px" opacity="0.25"></line><line x1="292.27999782562256" y1="0" x2="292.27999782562256" y2="174.23999977111816" fill="rgb(0, 0, 0)" stroke="rgb(60, 60, 60)" stroke-width="1px" opacity="0.25"></line></g><g><line x1="0" y1="174.23999977111816" x2="292.27999782562256" y2="174.23999977111816" fill="rgb(0, 0, 0)" stroke="rgb(60, 60, 60)" stroke-width="1px" opacity="0.25"></line><line x1="0" y1="156.81599979400636" x2="292.27999782562256" y2="156.81599979400636" fill="rgb(0, 0, 0)" stroke="rgb(60, 60, 60)" stroke-width="1px" opacity="0.25"></line><line x1="0" y1="139.39199981689453" x2="292.27999782562256" y2="139.39199981689453" fill="rgb(0, 0, 0)" stroke="rgb(60, 60, 60)" stroke-width="1px" opacity="0.25"></line><line x1="0" y1="121.96799983978272" x2="292.27999782562256" y2="121.96799983978272" fill="rgb(0, 0, 0)" stroke="rgb(60, 60, 60)" stroke-width="1px" opacity="0.25"></line><line x1="0" y1="104.5439998626709" x2="292.27999782562256" y2="104.5439998626709" fill="rgb(0, 0, 0)" stroke="rgb(60, 60, 60)" stroke-width="1px" opacity="0.25"></line><line x1="0" y1="87.11999988555908" x2="292.27999782562256" y2="87.11999988555908" fill="rgb(0, 0, 0)" stroke="rgb(60, 60, 60)" stroke-width="1px" opacity="0.25"></line><line x1="0" y1="69.69599990844726" x2="292.27999782562256" y2="69.69599990844726" fill="rgb(0, 0, 0)" stroke="rgb(60, 60, 60)" stroke-width="1px" opacity="0.25"></line><line x1="0" y1="52.27199993133546" x2="292.27999782562256" y2="52.27199993133546" fill="rgb(0, 0, 0)" stroke="rgb(60, 60, 60)" stroke-width="1px" opacity="0.25"></line><line x1="0" y1="34.84799995422364" x2="292.27999782562256" y2="34.84799995422364" fill="rgb(0, 0, 0)" stroke="rgb(60, 60, 60)" stroke-width="1px" opacity="0.25"></line><line x1="0" y1="17.423999977111805" x2="292.27999782562256" y2="17.423999977111805" fill="rgb(0, 0, 0)" stroke="rgb(60, 60, 60)" stroke-width="1px" opacity="0.25"></line><line x1="0" y1="0" x2="292.27999782562256" y2="0" fill="rgb(0, 0, 0)" stroke="rgb(60, 60, 60)" stroke-width="1px" opacity="0.25"></line></g></g></g><g><g><line x1="0" y1="174.23999977111816" x2="292.27999782562256" y2="174.23999977111816" fill="rgb(0, 0, 0)" stroke="rgb(153, 153, 153)" stroke-width="1.5px"></line></g></g><g><g><line x1="29.227999782562257" y1="0" x2="29.227999782562257" y2="174.23999977111816" fill="rgb(0, 0, 0)" stroke="rgb(153, 153, 153)" stroke-width="1.5px"></line></g></g><g><g><g><g><g><path style="fill: none;" stroke="rgb(204, 51, 17)" stroke-width="2px" d="M29.37413978147507,27.113262226728352L29.75410377864838,50.26914668274762L29.92947177734375,42.987963327264L30.397119773864745,60.70039059708489L30.45557577342987,63.15552921036121L30.543259772777557,54.4419758895929L30.777083771038058,35.85776336985566L30.864767770385743,28.14833597357577L31.303187767124175,28.677282721418663L31.39087176647186,31.261489472687572L31.975431762123108,45.381279319260756L32.209255760383606,63.78705400675234L32.32616775951386,72.50903727712094L32.910727755165105,69.64650715231485L33.29069175233841,51.32286513630895L33.758339748859406,54.25429480735019L33.846023748207095,67.97192104778124L34.10907574625015,57.203603536716344L34.430583743858335,44.65258606264905L34.57672374277115,45.060000133563534L34.63517974233627,62.49367976994775L34.66440774211883,52.60365123813412L34.781319741249085,68.45881271069895L35.27819573755264,72.97779463865136L35.74584373407364,63.79467852303756L35.92121173276901,57.62825229241487L36.067351731681825,62.123017852150255L36.50577172842026,67.63825918386105L36.68113972711563,66.64852471436906L36.82727972602844,56.45381930598698L37.03187572450638,65.90196358638694L37.14878772363662,73.37955725779622L37.20724372320175,56.744653343428084L37.76257571907044,59.00333421709544L38.23022371559143,39.138849114222865L38.288679715156555,52.91808508850308L38.52250371341705,47.86848220719189L38.8732397108078,56.22367747305127L39.136291708850855,74.97479109095511L39.37011570711135,82.97668373363436L39.837763703632355,81.19157810673522L39.9546757027626,80.8627216705915L41.53298769102096,94.19825298518548L41.56221569080353,90.66643641056024L42.059091687107085,78.06703836194143L42.146775686454774,67.2913467117046L42.234459685802456,68.02276840561821L42.67287968254089,58.756558652191956L42.760563681888584,73.80760883739175L42.78979168167114,61.36491695302395L43.082071679496764,69.51290327679526L43.57894767580033,53.3191861722738L43.63740367536545,61.87287671539656L44.25119167079926,65.69522856281634L44.33887567014694,63.60250091741149L44.748067667102816,67.91499081440385L44.89420766601562,75.70737583234065L45.507995661449435,81.00875626893041L45.683363660144806,76.6409925894288L45.97564365797043,81.21084421038718L46.15101165666581,88.55951339567603L46.20946765623092,91.77972318630411L46.355607655143736,98.72009667754575L46.3848356549263,83.63854598105875L46.82325565166474,90.08683903257088L47.34935964775086,78.27242899121175L47.407815647315985,80.6813971850299L47.75855164470672,87.24970878726398L47.96314764318466,90.67210345077798L47.992375642967225,80.15851250202772L48.050831642532344,88.20371265978787L48.13851564188004,100.3542231485715L48.19697164144516,102.34327326136645L48.54770763883591,82.05208604960266L48.839987636661526,98.47461986646707L49.190723634052276,105.32101062867551L49.33686363296509,108.8324590623089L50.0967916273117,107.38316635729338L50.213703626441955,109.21997864538653L50.3306156255722,100.46259143707763L50.35984362535477,91.14313835212755L50.5644396238327,69.56770458215134L50.827491621875765,69.85941660426066L50.94440362100602,92.87408601851163L51.06131562013626,93.38738470715599L51.20745561904907,100.35929914565867L51.32436761817932,92.42390183659633L51.58741961622238,83.17819465745866L51.70433161535263,98.3869082621639L51.762787614917755,95.47759056143163L51.82124361448288,101.74745393856557L52.025839612960816,103.25085931446189L52.171979611873624,95.08638059260466L52.23043561143875,93.700670083315L52.37657561035156,95.21713415551639L52.435031609916685,95.58345144995408L52.55194360904693,107.02542037785425L52.66885560817718,105.39336792960945L52.84422360687255,114.87944580551215L52.873451606655124,114.00027589501661L53.54569560165405,123.477742301246L53.662607600784305,104.16359453328562L54.62713159360886,108.99345167232283L54.831727592086786,98.87384787592117L55.007095590782164,91.55009535390569L55.41628758773803,91.8491715380072L55.533199586868285,99.95972633839159L55.73779558534623,109.6302647329413L55.796251584911346,115.81119581093708L55.971619583606724,108.56470584808642L56.03007558317185,110.69985222517167L56.43926758012771,97.00112700843246L56.46849557991028,75.02062564967008L56.760775577735906,84.47368681562676L56.84845957708359,82.08319969614057L57.11151157512665,89.4998759663653L57.2284235742569,107.25564142133358L57.34533557338715,110.90659773567856L57.60838757143021,112.56702845857569L57.63761557121276,109.46602534488548L57.81298356990814,109.67558653509394L57.842211569690704,102.99081104350468L57.98835156860351,107.5451568922376L58.33908756599426,111.68810879812325L58.514455564689634,106.23336157668858L58.60213956403732,106.06600604522936L58.86519156208038,99.48850119357186L59.18669955968857,100.87562610798382L59.74203155555725,99.48918569318198L60.12199555273056,113.20516256307687L60.29736355142594,110.1702751308945L60.38504755077362,110.47195464923504L60.44350355033875,115.31604951994646L60.56041554946899,96.11503669716748L60.73578354816437,108.2869835606954L60.881923547077186,105.5444253793709L61.1742035449028,103.41823022149752L61.349571543598174,89.83555940377366L61.46648354272842,86.90589867874334L61.49571154251099,104.72876414236617L61.78799154033661,50.36652521780469L61.93413153924942,74.2561531709813L63.015567531204226,97.4207048927587L63.13247953033447,106.77791119920118L63.16170753011703,98.8997333757294L63.1909355298996,85.6244109900557L63.71703952598572,100.43597547665367L64.06777552337647,107.57342044990229L64.09700352315903,53.212726128209994L64.27237152185441,42.388601800116845L64.47696752033234,67.8085229094766L65.23689551467896,85.7597078675367L65.29535151424408,94.39071854115213L65.5876315120697,107.69258264796852L65.90913950967789,118.25662707969661L65.99682350902557,118.82591460618275L66.08450750837326,125.22338689343914L66.66906750402451,119.17854950755837L66.84443550271988,86.87387166204091L67.04903150119782,96.54248205752916L67.2243994998932,91.9093854034077L67.51667949771881,89.4029364338606L67.69204749641419,94.2666807350978L67.77973149576187,89.06552263862429L68.10123949337006,97.4337083904195L68.18892349271775,104.1575179162708L68.27660749206542,116.3336991765826L68.30583549184799,110.96231659314486L69.70877948141097,106.73641885859357L69.79646348075867,110.63857742162548L69.88414748010635,111.11032230707868L69.91337547988891,122.88385440983353L70.55639147510529,115.11244968031613L70.90712747249603,115.48335712591035L70.96558347206116,120.89220675842071L71.08249547119141,110.66255606253986L71.19940747032166,109.66420721998627L71.3163194694519,116.6888833483178L72.04701946401596,123.238563239283L72.07624746379852,125.09806583390743L72.3977554614067,121.38796208581826L72.63157945966721,123.9127965115559L72.74849145879746,118.92476024583797L72.80694745836257,116.53813051174923L73.30382345466614,124.91334138579211L73.74224345140458,124.2856527578457L73.85915545053481,115.91600582959936L74.58985544509888,105.43735119231667L75.05750344161987,108.15626990362503L75.08673144140243,116.89848653473499L75.52515143814088,112.6954441674902L75.6420634372711,72.50931268623711L75.90511543531417,81.4993969299671L76.10971143379211,101.47920714256159L76.13893943357468,114.69476479636816L76.51890343074798,105.44178692266689L76.78195542879104,103.64228615085355L76.92809542770385,85.30405601683286L77.07423542661667,93.97763396854148L77.16191942596436,68.24014829005353L77.30805942487717,96.98265597710285L77.39574342422485,109.24528374288876L77.7464794216156,110.82539520380334L77.9803034198761,123.67062837408066L78.18489941835404,111.60931968046502L78.38949541683196,123.38742475532717L78.65254741487503,116.36688737471893L78.76945941400528,114.32061744900182L78.79868741378785,117.21183938060165L78.82791541357041,116.01370150879197L78.88637141313552,105.00981856842738L78.97405541248321,100.49944274662053L79.17865141096114,117.83649145625724L79.4417034090042,107.16867024508677L79.73398340682984,119.9063058661997L79.85089540596009,117.11152531028671L79.9093514055252,105.15042321034109L79.99703540487289,102.9262497463736L80.1431754037857,113.05721940781487L80.2308594031334,108.6893207954285L80.26008740291596,104.19407125448248L80.28931540269852,105.01513255243873L80.8446473985672,109.71397906727961L81.10769939661027,119.09291322164913L81.28306739530564,115.63334319470567L81.48766339378356,122.50014917666509L81.51689139356613,119.10913668157585L81.7799433916092,118.5785592194729L81.98453939008714,105.80470255997955L82.33527538747788,101.90011677551601L82.59832738552095,116.76710591142734L82.71523938465117,114.23078835112338L83.0075193824768,117.92433879815667L83.12443138160705,125.11434686555279L83.38748337965012,127.58578197860587L83.76744737682343,109.36340172310226L83.85513137617112,96.90197377017154L84.03049937486648,102.12850861189865L84.08895537443162,108.54540633643177L85.08270736703874,106.5705016591013L85.2580753657341,107.7610580790137L85.75495136203766,112.23684829160541L85.81340736160278,99.71629627984859L85.87186336116791,114.48898555324072L86.04723135986328,88.74165265814808L86.13491535921098,86.12975981264718L86.19337135877609,104.60457830932806L86.71947535486221,114.2959048845166L87.12866735181808,123.61572536592669L87.1871233513832,123.57899867126838L87.71322734746933,117.74792964971402L87.83013934659958,112.36633444096077L88.06396334486008,114.07821256579508L88.56083934116363,117.27974189603029L88.736207339859,119.11317193019943L89.4376793346405,129.52346666141713L89.78841533203124,129.74569476042595L89.81764333181381,123.03046066210692L89.9053273311615,127.60155649037934L89.93455533094405,125.37708781035778L89.99301133050919,106.28535567657386L90.0514673300743,101.24675030015209L90.16837932920456,98.34431866631877L90.28529132833481,109.59611512968998L90.43143132724762,114.8107103208272L90.48988732681273,127.88951511664538L90.92830732355118,131.6403724805278L91.9220593161583,120.36886966274405L92.03897131528855,124.3953863386381L92.09742731485366,119.66231195186258L92.24356731376648,115.06658235620719L92.50661931180954,125.05699555615129L92.74044331007005,125.55906313493601L92.85735530920029,112.22330427423236L93.1496353070259,124.38909503269784L93.20809130659104,120.12857719148468L93.26654730615616,125.34753679552819L93.29577530593872,133.23787462216796L93.41268730506897,131.68413921606015L93.50037130441666,127.8721467650119L93.73419530267715,125.7694063188599L93.8511073018074,114.51663239510358L94.26029929876327,117.79250307520876L94.43566729745865,101.31537489752805L94.58180729637147,108.88647493064934L94.61103529615401,99.77926996868148L94.66949129571915,106.12322367696291L94.75717529506683,117.95939333191268L94.81563129463197,116.31412815162375L94.87408729419708,121.80906847074175L94.90331529397965,111.37485118839803L95.10791129245759,114.5074027692385L95.19559529180526,128.6902815905276L95.34173529071808,115.29552814959315L95.89706728658676,129.2477956364164L96.18934728441239,131.3533807117838L96.36471528310776,128.82501304917835L96.54008328180312,133.93948956471485L96.65699528093337,131.8870934094595L96.68622328071594,124.77707508323553L97.00773127832412,129.55347606578874L97.03695927810669,128.2395370120304L97.47537927484512,122.61971232437277L97.76765927267076,111.66045229499935L98.0307112707138,120.80885938862487L98.52758726701737,118.57900694072923L99.05369126310347,117.461108416878L99.08291926288605,126.03963681895137L99.14137526245118,129.2681445201406L99.4336552602768,121.61900702888913L99.55056725940705,120.13697188914139L100.10589925527573,114.50875385183161L100.42740725288391,127.03048709108842L100.6612312511444,114.29473079373186L100.83659924983978,64.56129222449489L100.86582724962236,95.88795380080656L100.92428324918747,109.85925046034401L100.98273924875258,118.53043831439123L101.1288792476654,115.80675903703334L101.85957924222946,119.97987917409543L101.88880724201204,119.39583905183184L102.18108723983765,116.96103207525164L102.23954323940278,124.81319699701923L102.38568323831558,122.52011113643529L102.79487523527146,130.22013372219942L102.97024323396683,132.151544554068L103.17483923244475,128.33901823981904L103.2332952320099,134.11414302848527L103.67171522874833,134.3446539410902L103.78862722787858,134.51186337214483L103.84708322744369,135.61744025016026L104.227047224617,134.33216290350077L104.57778322200775,123.0134764659872L104.9285192193985,129.25565901747257L104.95774721918106,111.01246589646942L104.98697521896362,115.90731796456116L105.22079921722411,122.0408237294154L105.39616721591949,128.31733459077054L105.89304321222306,127.6101174486036L106.06841121091843,98.90576652288556L106.09763921070099,108.5511788375106L106.3314632089615,122.55352821573078L106.50683120765686,117.94174532912501L106.68219920635224,115.18371514793093L106.82833920526504,125.47078854593512L107.50058320026397,133.6273593758017L107.5590391998291,129.0627236838988L107.70517919874192,136.33509000169255L107.85131919765472,138.99648410071111L108.23128319482804,143.27295019622787L108.43587919330596,126.64976619618852L108.8742991900444,115.46017746066467L109.22503518743514,120.08088678609592L109.31271918678284,119.5642660180299L109.72191118373871,118.10982868633343L109.75113918352127,109.0904684811683L109.80959518308639,122.94283295410193L110.74489117612839,125.89833026962299L110.77411917591095,117.42055791358187L110.8033471756935,117.77947192734368L111.00794317417146,113.0392148085106L111.32945117177964,117.86790268258824L111.76787116851807,128.37742143398444L111.85555516786575,121.81014252362392L111.91401116743089,122.90762566135996L112.79085116090775,133.22623812042335L113.17081515808106,131.6502754524083L113.43386715612411,118.46720036439382L113.69691915416718,109.3304398507029L113.87228715286255,113.7802825391464L113.9891991519928,118.6324005135427L114.48607514829635,121.8167438304756L114.54453114786149,127.84063206086812L114.57375914764405,131.01538776350552L114.6029871474266,132.4157430673501L114.92449514503478,126.53105702276525L115.45059914112092,126.09394648562419L115.94747513742446,123.05996737363024L116.18129913568497,130.15939505451445L116.85354313068389,117.6290052268561L117.11659512872696,128.64996772467018L117.17505112829208,132.79383393814936L117.23350712785721,109.27337233405117L117.35041912698746,124.24851385621776L117.37964712677002,117.48980555918833L117.7011551243782,119.35661835586055L117.7888391237259,127.22449493205107L118.02266312198638,135.9383967338786L118.11034712133409,131.0891518764079L118.37339911937714,136.46359613813928L118.81181911611556,134.75912776436664L118.92873111524581,142.19806654290693L118.98718711481095,142.04822115501162L119.42560711154938,141.73689789454252L119.80557110872269,132.532789591395L120.47781510372162,133.1514624426641L120.91623510046006,132.88727941166837L120.94546310024262,130.20678893308425L121.15005909872055,135.21668064664715L121.29619909763336,127.57801394411587L121.44233909654616,130.0504252805545L121.55925109567642,118.11819730965811L121.61770709524156,121.74598577234974L122.08535509176255,130.1891726766863L122.40686308937073,133.01965916495237L122.61145908784866,87.9874543474848L122.64068708763122,97.09100094118469L122.84528308610916,113.75213425283368L122.93296708545684,120.11143049082457L123.63443908023834,128.61336413585698L123.72212307958603,131.41002254253266L123.92671907806397,134.6410859381509L124.01440307741166,137.7884855591696L124.04363107719422,135.59539160568175L124.10208707675933,141.24053560400748L124.13131507654191,138.46918813600868L124.71587507219316,126.89137165736952L124.86201507110596,127.63951627851071L125.12506706914901,126.47660669901884L125.18352306871415,120.65783496851824L125.82653906393051,129.16243071820918L126.06036306219102,126.95795867112994L126.46955505914687,135.336418719705L126.49878305892945,142.26750049938923L126.64492305784226,146.08397546438923L126.79106305675508,139.5724910358528L126.995659055233,127.7620980602403L127.8432710489273,129.11661965857567L127.90172704849243,131.24703200435L127.96018304805756,135.47379517980727L128.19400704631806,133.6641679826053L128.6908830426216,135.58971901666695L128.83702304153442,133.04523752915577L129.48003903675078,134.88098007544662L129.5677230360985,128.19454831986454L129.7138630350113,133.2472628916167L129.91845903348923,119.5131026418753L130.03537103261948,120.34244349526828L130.0938270321846,129.7735419149416L130.26919503087996,137.1746688857137L130.29842303066252,131.74912717323164L130.47379102935793,137.03238794900213L130.67838702783584,140.16976194361337L130.85375502653122,141.67749467617654L130.9414390258789,143.33534989852632L131.43831502218245,144.6792790320344L131.4967710217476,131.9453989315065L131.7890510195732,138.31000201276603L131.8767350189209,129.77931884943894L132.08133101739884,131.20820447697608L132.54897901391985,138.2645438438218L132.60743501348495,139.1661233290929L132.78280301218032,137.77613719157713L132.89971501131058,136.0314440026956L132.9581710108757,138.77241276475758L133.36736300783156,147.17756021718512L133.86423900413513,59.14325043253601L134.2149750015259,58.12490695585727L134.4487989997864,97.16851785457914L134.9749029958725,111.56509956299165L135.03335899543762,124.93658795426532L135.09181499500275,126.54054729213155L135.17949899435044,114.2959128166037L135.26718299369813,121.02508460551076L135.76405899000167,130.31617850752514L136.08556698760987,126.40731896439416L136.11479498739243,132.7158453911875L136.49475898456575,137.85539107889647L137.37159897804258,136.57241934145046L137.43005497760774,144.67993211709458L138.13152697238922,136.3428177085294L138.24843897151948,133.87860442085034L138.3068949710846,134.4581975040034L138.48226296977998,132.04004502756487L138.56994696912767,134.43449057755168L138.62840296869277,136.04341514665924L138.89145496673584,137.05242435469546L139.09605096521378,130.05782549306196L139.4760149623871,125.25808119724444L139.70983896064757,111.82252561300528L140.0898029578209,128.98911514096636L140.14825895738602,132.51755737009418L140.2359429567337,138.90053772100248L140.58667895412444,142.50910411291414L140.7035909532547,144.63584143556122L140.8497309521675,140.55664998189027L140.90818695173263,141.94760835980296L141.20046694955826,144.60975954839546L141.3173789486885,144.8437190064754L141.6973429458618,139.53313963515424L142.16499094238281,129.57791325233228L142.31113094129563,127.24492267962191L142.51572693977354,134.0160181568054L143.24642693433762,137.91432157961523L143.27565493412018,129.03837105468745L143.5094789323807,132.33239458521962L143.8017589302063,134.73644259885117L144.0355829284668,138.10495520100116L144.24017892694474,125.25096581127295L144.357090926075,129.94627680343308L144.67859892368315,137.15066459059034L144.85396692237853,65.00481689839843L145.0293349210739,92.6988156027524L145.6723509162903,104.72926191142886L145.99385891389846,103.71482945491627L146.13999891281128,106.4201727327742L146.40305091085435,121.82478347703235L146.4322789106369,133.04808496374838L146.75378690824508,99.23992783034461L146.78301490802764,117.70676932016829L147.10452290563583,125.31290963236798L147.19220690498352,133.62483773032196L147.48448690280915,139.7525939719039L147.51371490259172,137.00173870162988L147.54294290237428,132.9411529394056L148.85820289258956,137.9121691366779L149.00434289150238,132.57864555374002L149.03357089128494,138.25800817988033L149.32585088911057,144.79748893304154L151.45949487323762,140.84021526522096L151.78100287084578,143.93151822882717L151.81023087062835,145.38218410652843L151.86868687019347,140.03790805747335L151.92714286975863,141.3339786001423L152.0148268691063,138.8268668950625L152.04405486888885,134.92018035669966L152.10251086845398,140.5548888707414L152.77475486345293,139.94713786689027L152.9208948623657,142.58156698113714L153.0085788617134,145.97457441049272L153.2424028599739,142.14106834419977L153.56391085758207,137.31530653418065L153.82696285562514,135.053143508998L153.91464685497283,132.60549765569365L153.9438748547554,120.83370827583664L154.38229485149384,126.7933548313544L154.84994284801485,137.30845454840008L155.0253108467102,126.21970718531381L155.14222284584048,119.08696169587208L155.4052748438835,124.47289560441509L155.46373084344864,131.9127843303196L155.7267828414917,135.2325393351723L155.84369484062196,138.67671809511017L156.01906283931734,131.0608248100884L156.16520283823013,137.05129952542953L156.8082188334465,139.28411106788656L156.92513083257677,137.85825731420093L157.1881828306198,140.6661777554271L157.62660282735825,114.18702045690104L157.8311988258362,118.89684041230103L158.00656682453155,121.50221470470888L158.12347882366183,133.11107003287253L158.15270682344436,125.478622064254L158.70803881931306,132.73805269303787L158.73726681909562,129.4060778769002L158.79572281866075,100.98527478919803L158.97109081735613,117.70180452704437L159.0587748167038,122.51331350591005L159.847930810833,131.4483378380358L160.02329880952834,125.11782449952138L160.14021080865862,123.26023451716357L160.22789480800628,136.3747892050414L160.4617188062668,140.72860424150912L160.5201748058319,141.86317284926187L161.01705080213546,145.10994171287433L161.04627880191805,133.62381815794188L161.6016107977867,127.26544013252773L161.63083879756928,135.78789006384432L161.71852279691697,139.54119531056142L161.98157479496004,141.27374077998326L162.21539879322054,142.65396274807847L162.27385479278564,144.66491346182858L162.3030827925682,143.6028256317596L162.74150278930662,139.55326299023312L163.03378278713225,143.60485526607366L163.12146678647997,144.0702276149034L163.44297478408814,147.8118539332234L163.53065878343583,147.24122204330172L163.58911478300095,145.3072058770233L163.64757078256605,140.39142261174712L163.99830677995683,140.99632914804207L164.49518277626038,134.61037499881226L164.93360277299882,136.21521783683465L165.10897077169417,132.56746037393646L165.31356677017212,139.7237406068224L165.54739076843262,138.06113127196403L165.66430276756284,111.98939616262753L165.86889876604081,118.85805186768616L165.89812676582335,129.99491084890363L165.9273547656059,134.29617120211873L166.21963476343154,138.38412295344978L166.97956275777818,140.9883843709851L167.12570275669097,142.35447431235585L167.59335075321198,148.14725780012174L167.73949075212477,132.46738088320356L167.91485875082017,133.07808938252035L168.0317707499504,131.73173562999023L168.06099874973296,134.95286590381173L168.29482274799346,135.99581091306916L168.38250674734115,129.2764869944724L168.41173474712375,131.66758278037003L168.47019074668884,138.3707426005635L168.55787474603653,141.00010940553477L168.8209267440796,132.16373496484385L168.93783874320982,141.06338312685176L169.0547507423401,146.830579515179L169.14243474168777,136.77017622412103L169.17166274147033,130.819720666381L169.3470307401657,132.6708960960921L169.52239873886109,137.58854522423076L169.5808547384262,142.6158364787052L169.6685387377739,135.33947796091383L170.25309873342513,140.83285286833961L170.69151873016355,136.33908440223613L171.04225472755434,136.6995634089289L171.59758672342298,137.60755300052773L171.65604272298813,136.27387950140857L172.1236907195091,144.4647917722484L172.2113747188568,145.72369713411075L172.26983071842196,141.84751788206952L172.2990587182045,124.81234881566704L172.8543907140732,116.6437301364198L173.55586270885468,123.49182824346234L173.64354670820236,134.99218258233049L174.02351070537568,137.02132773675828L174.25733470363616,144.03202706250093L174.52038670167923,149.16662438681072L174.60807070102692,144.28497487006496L174.66652670059204,141.83560789631832L174.6957547003746,142.5317784997832L175.10494669733046,144.7861495405942L175.33877069559097,134.2542294627587L175.98178669080733,115.23909275065171L176.15715468950273,120.9475487429704L176.2448386888504,132.39555805971048L176.44943468732833,142.1597943858307L176.82939868450165,132.07248605949354L176.88785468406675,133.6759390081557L176.91708268384932,134.5239778414066L177.12167868232726,121.3494522261117L177.6477826784134,128.9463544370128L178.1154306749344,112.49932882089286L178.32002667341231,128.42171097727123L178.46616667232513,132.56525162158852L178.4953946721077,140.67525504341677L178.67076267080304,144.46201324913073L179.0507266679764,143.13333905417352L179.10918266754152,129.55679678066306L179.28455066623687,140.6075377889116L180.0444786605835,143.3115007462819L180.19061865949632,145.53148484220756L180.57058265666961,151.22942876998L180.68749465579987,137.7358706955056L181.21359865188597,139.38810724933904L181.44742265014648,140.61482853199217L182.1196666451454,137.72173507420405L182.2073506444931,141.65848478603255L182.23657864427568,142.72041997746263L182.3534906434059,143.44065169748956L182.38271864318847,131.4304296456532L182.49963064231872,142.03492204919058L183.1426466375351,143.16801512124476L183.81489063253403,147.45693393800406L184.19485462970732,150.74102613860978L184.66250262622833,130.80381496906296L184.98401062383653,139.6352923591302L185.4516586203575,146.54258064032763L185.5393426197052,149.41482481604703L185.8608506173134,144.04676473413335L185.89007861709595,126.9304618920581L185.97776261644364,134.14653835819473L186.47463861274719,142.53137770588887L186.59155061187744,140.26545238989783L187.17611060752867,121.74762200483238L187.2345666070938,135.25082239210647L187.64375860404968,138.59463269162282L187.7898986029625,141.4302810376016L188.19909059991838,146.76883362130553L188.22831859970094,129.4593083486122L188.28677459926604,129.5740159502861L188.43291459817888,116.91491623830647L189.2512985920906,125.52265903322862L189.51435059013366,137.61400380729944L189.7189465886116,142.07646913698068L189.83585858774185,141.0164825098497L190.01122658643723,145.40770729046378L190.18659458513258,130.27632779561128L190.3327345840454,139.26303088723236L190.4204185833931,115.84698587121096L190.4788745829582,123.09756265861509L190.91729457969666,104.5409829436585L191.18034657773973,119.79107644851095L191.41417057600023,123.32282742116836L191.91104657230377,133.51297446690077L192.0571865712166,137.30161644934043L192.11564257078172,140.92541790995637L192.46637856817244,141.56985555808805L192.52483456773757,131.29518847003857L192.70020256643295,139.06481522469957L193.0509385638237,135.9690313845417L193.19707856273652,140.98538545229212L193.48935856056215,138.3150283371104L193.78163855838775,142.34747638169037L193.84009455795288,145.10080103437767L194.2785145546913,148.8411833831375L194.6000225522995,144.82051391298867L194.65847855186465,143.28545027582084L194.77539055099487,140.8061167130674L195.1261265483856,147.5088127663625L195.21381054773332,146.45855385718858L196.41215853881837,147.0411335927175L196.49984253816604,143.80763780623423L196.6167545372963,123.47575383849946L197.02594653425217,120.33469990584453L197.34745453186036,123.88308265676004L197.55205053033828,130.1423831701852L197.75664652881622,114.25462085267662L198.04892652664185,127.37843117246882L198.1366105259895,127.32831420035332L198.28275052490235,129.41779019121017L198.42889052381514,139.0641643404307L198.60425852251052,131.0667263535073L198.95499451990128,129.96150787069553L198.98422251968384,140.53394433598206L199.48109851598738,144.25865230376093L199.56878251533507,143.56722681838235L199.77337851381301,129.2764907737456L200.12411451120377,135.21166638406825L200.56253450794222,141.9489836658741L200.62099050750732,149.5346608793251L200.82558650598529,141.62824417135397L201.1178665038109,133.24294031491365L201.35169050207136,138.95709090224048L201.41014650163652,142.55459613650228L201.46860250120164,125.39930560507278L201.61474250011443,133.65489585402014L201.8777944981575,141.6543781722616L202.17007449598313,138.313375699396L202.19930249576566,131.3390391977527L202.4915824935913,134.65061874539293L202.60849449272158,137.28238014614942L202.63772249250414,137.02176481742723L203.1930544883728,134.17746899751933L203.3391944872856,139.62141918516176L203.39765048685072,142.96045154149482L203.514562485981,141.56577150964702L203.77761448402407,145.68529808066162L204.30371848011015,135.12302659646787L204.8882784757614,144.08741779475702L205.03441847467423,140.52723447270384L205.2974704727173,146.24404052054413L205.47283847141264,145.11761468477093L205.5020664711952,141.02305280218536L205.5312944709778,136.92618660164547L205.6189784703255,130.24645023628568L205.70666246967315,132.16607469975744L206.3496784648895,140.77794116777693L206.84655446119308,146.00846616506342L206.87578246097564,146.52697364171877L206.99269446010592,141.55097740185374L207.1388344590187,127.60161760263462L207.34343045749665,134.1849329034884L207.60648245553972,98.54602670448615L207.66493845510485,112.97997431891741L207.95721845293045,129.9580553061735L208.1325864516258,131.02697833381762L208.19104245119095,141.3113804236981L208.3664104498863,144.52558851357557L208.42486644945143,145.4768043716316L208.48332244901658,150.1511207307642L208.8340584464073,146.10430590121777L208.89251444597244,146.50848979830764L208.95097044553756,137.2501072113817L209.6232144405365,125.10317012279558L209.74012643966674,131.78361983268664L209.88626643857955,140.0605007513035L209.97395043792724,143.77567864817968L210.44159843444822,145.04742800002023L210.73387843227385,142.36081305343072L210.76310643205642,140.55853786281133L210.82156243162157,130.37542002430416L210.99693043031692,128.79058808402408L211.1722984290123,139.2131101433383L211.3768944274902,140.99226332458935L211.52303442640306,135.70226534873157L211.727630424881,139.36425962579324L211.90299842357635,142.44358507423328L212.28296242074964,142.8208450676714L212.48755841922758,144.33581166632771L213.04289041509628,137.50432524889436L213.6274504107475,145.1163458967838L213.7151344100952,147.9275611583838L213.83204640922548,138.26159286436013L213.86127440900802,143.53629553714845L214.065870407486,73.8056968102082L214.5627464037895,104.47034440057222L214.8842544013977,123.99582094254555L215.20576239900586,135.77348641476675L215.41035839748383,114.16067041156165L215.5857263961792,124.47556515252867L216.2871983909607,128.38003802611075L216.95944238595962,134.14283017567607L217.66091438074113,134.38859854061835L217.89473837900164,123.9303453448853L218.01165037813186,122.97161928677983L218.39161437530518,126.67934648541703L218.71312237291335,132.5026888249957L218.83003437204363,134.75893213777846L219.06385837030413,145.85253548016942L219.0930863700867,149.4445250066617L219.20999836921692,151.22230657314668L219.47305036726,148.80884089789637L219.50227836704255,150.40055657561373L219.79455836486815,151.70196881431633L219.82378636465072,149.83695709500395L219.85301436443328,152.42388650855298L220.08683836269378,150.84887886614305L220.20375036182404,119.15368630610641L220.67139835834504,124.84675607850647L221.3728703531265,132.78153417716032L221.48978235225678,139.45394718881752L221.5482383518219,145.04570243257584L221.57746635160447,141.69546004682928L221.66515035095213,142.44692333920884L221.9282023489952,141.13964607784084L221.95743034877776,143.93766075307266L222.22048234682083,136.87293291999327L222.30816634616855,140.7017810411672L222.60044634399415,136.6203367293491L222.74658634290697,131.03886699695914L223.7987943350792,130.55279759272943L224.06184633312225,132.87635386183348L224.1203023326874,140.65399841145745L224.23721433181763,140.74676250682103L224.412582330513,146.71476074661695L224.5002663298607,149.37992039182774L224.70486232833863,148.13384717300613L224.79254632768632,148.49358040605287L224.9386863265991,146.11799487416448L225.02637032594683,145.66727620412652L225.26019432420733,150.13084444656877L225.37710632333756,144.76016689445885L225.49401832246778,141.05881476235874L225.7862983202934,140.37935697571808L225.81552632007597,147.6738100387677L226.16626231746676,145.01906201402687L226.28317431659698,135.68961127205114L226.48777031507493,140.24745654152227L226.60468231420518,145.18496742173923L226.92619031181334,147.31767039928556L227.2769263092041,147.41929664674188L227.7445743057251,149.51416924122253L228.47527430028913,145.23985669544317L228.9136942970276,118.75980099203164L229.1475182952881,131.88655704450514L229.32288629398346,142.7830175633676L229.4397982931137,146.13067969077684L229.55671029224396,146.05431870656395L229.79053429050447,144.5280845841064L229.96590228919985,142.15385870567212L229.9951302889824,149.742444374486L230.49200628528595,150.08977393862867L230.755058283329,153.18737733652318L230.9304262820244,154.02050546862122L231.1642502802849,140.83669071069596L231.25193427963256,138.91607113193965L231.36884627876282,63.637847058389724L231.66112627658842,87.74514851950741L231.89495027484892,107.37645934773425L231.9826342741966,126.65725927828572L232.3918262711525,138.247005132909L232.50873827028275,144.4675040305231L232.74256226854325,134.23028423146278L232.8302462678909,139.52888096973396L233.00561426658632,137.54224108208928L233.53171826267243,139.29420640730066L233.59017426223755,146.38433102334298L234.1162782583237,144.58584184847302L234.2331902574539,145.66808997736965L234.3208742568016,150.95317628443584L234.75929425354005,149.68187928195806L234.84697825288774,150.64821219079465L234.96389025201796,135.2478226336629L235.1684862504959,135.02640603002328L235.5484502476692,138.3127038332761L235.7238182463646,146.0199268884539L236.13301024332046,127.87186783479504L236.4837462407112,135.93072738408057L236.68834223918913,124.24845646447383L236.92216623744963,128.28657359065693L237.15599023571014,135.41132818807887L237.1852182354927,137.0667197816838L237.33135823440554,137.64096574379872L237.44827023353577,144.97605684187224L237.82823423070906,147.11221124038204L237.94514622983934,147.41841857975155L238.3543382267952,146.9895576360487L238.70507422418595,141.34010749384123L238.73430222396848,146.4403842181003L238.93889822244645,149.4018603547713L239.17272222070696,151.62520263637663L239.3480902194023,148.17587114142975L239.5234582180977,142.911969803246L239.72805421657563,144.02423411157002L239.78651021614075,149.54753468389907L240.04956221418382,118.85111606703636L240.10801821374892,120.02233283001831L240.13724621353148,130.50074818628357L240.69257820940018,138.35214338053936L240.78026220874787,145.3385549879887L241.0433142067909,137.33424036598208L241.42327820396423,142.53823800827573L241.7447862015724,145.3672105324071L241.8324702009201,142.71037412958623L242.12475019874574,147.24960592708808L242.59239819526672,148.7333613744625L242.9139061928749,142.28721223915602L243.0015901922226,142.1062865070202L243.44001018896103,148.60767512510353L243.73229018678666,146.33475371975095L243.7615181865692,132.89955943846275L243.90765818548203,139.0284002389741L243.9368861852646,145.87307648597897L244.08302618417738,148.55350675921844L244.14148218374254,141.86139267683285L244.25839418287276,146.0973096442284L244.28762218265533,146.92861607634015L244.3168501824379,147.05012020149127L244.75527017917634,141.12358686388325L244.95986617765425,148.35749649420916L244.9890941774368,136.94406131394237L245.1060061765671,140.8065011339432L245.1644621761322,135.7535012542687L245.42751417417526,133.1115506473173L245.5444261733055,138.66277224059183L245.6321101726532,146.38613697331812L246.3920381669998,143.93414813469343L246.42126616678237,140.69535916314044L246.68431816482544,141.01444937892137L246.77200216417313,143.9155337767422L246.88891416330338,146.12149383731642L246.97659816265104,148.53457356962514L247.26887816047667,149.56283524794804L247.29810616025924,127.72163384385296L247.3273341600418,141.22902695769875L247.3565621598244,148.65196544378375L247.50270215873718,152.0237278535484L247.67807015743256,148.800667886102L247.7949821565628,150.34004353761497L247.85343815612794,152.93913522776307L248.20417415351866,154.68487311666829L248.32108615264895,149.80306170121057L248.4964541513443,139.77232451355502L248.52568215112686,142.705695115495L248.75950614938736,130.08089360582252L248.93487414808274,140.0260885413197L249.08101414699553,131.0346915895626L249.31483814525603,140.7124610227629L249.51943414373397,143.84886804942622L249.8117141415596,142.20245222023897L250.33781813764574,143.68977068154953L250.57164213590622,148.5978030375267L251.24388613090517,139.4704846643701L251.44848212938308,145.1089545286619L251.62385012807846,101.50304742662537L251.71153412742615,110.10556141975302L252.61760212068558,127.20973192743654L252.6468301204681,131.48788753160994L253.11447811698915,134.94524622783655L253.14370611677168,143.53642667768133L253.4359861145973,128.12482864010857L253.523670113945,130.23761072366327L253.58212611351016,124.91234427154959L253.90363411111832,138.4148740245913L254.07900210981367,139.55821273068375L254.1666861091614,127.00499936082174L254.2835981082916,135.91915892182365L254.75124610481262,143.33998621202275L254.80970210437775,141.12632901518697L254.8389301041603,146.83335202259136L254.95584210329054,143.78672325759982L255.04352610263825,141.59727301571945L255.10198210220338,141.4452308407145L255.18966610155104,147.5382598658523L255.51117409915923,148.4353588454567L255.62808609828951,151.87126471855635L255.94959409589768,150.41737742180055L256.03727809524537,147.43345936555926L256.62183809089663,149.78588978400188L256.85566208915714,151.9217858798228L257.1479420869827,153.42932944264666L257.1771700867653,153.79429596972926L257.49867808437347,120.80594401088356L258.1709220793724,125.36680052991088L258.31706207828523,139.15222991648702L258.81393807458875,139.49912748432203L259.3108140708923,141.32888811132517L259.4861820695877,143.59139152636433L259.5446380691528,146.59309272903548L259.866146066761,151.9492460114665" fill="none"></path></g></g></g></g><g opacity="0.2"><g><g><g><path style="fill: none;" stroke="rgb(204, 51, 17)" stroke-width="2px" d="M29.37413978147507,27.113262226728352L29.75410377864838,64.16267735635915L29.92947177734375,35.9980273059997L30.397119773864745,81.53020506639427L30.45557577342987,66.36095818385479L30.543259772777557,42.3879947677749L30.777083771038058,9.28204211923105L30.864767770385743,16.9079168192967L31.303187767124175,29.457376431870557L31.39087176647186,35.09873532453025L31.975431762123108,66.43289863442862L32.209255760383606,91.29555262493949L32.32616775951386,85.56353339399709L32.910727755165105,65.35831995961644L33.29069175233841,23.858940865646787L33.758339748859406,58.649371842590085L33.846023748207095,88.54255556873375L34.10907574625015,41.05386134476851L34.430583743858335,25.827971872734338L34.57672374277115,45.671084000675364L34.63517974233627,88.6432431200999L34.66440774211883,37.76893387601535L34.781319741249085,92.24124188704104L35.27819573755264,79.75621399893089L35.74584373407364,50.02006961927589L35.92121173276901,48.378639243471866L36.067351731681825,68.86515469088022L36.50577172842026,75.91111271423267L36.68113972711563,65.16392392181638L36.82727972602844,41.16176682787261L37.03187572450638,80.07417687387942L37.14878772363662,84.59594627711931L37.20724372320175,31.792299457749323L37.76257571907044,62.39135536581182L38.23022371559143,9.342122313625396L38.288679715156555,73.58693869461115L38.52250371341705,40.29407796335079L38.8732397108078,68.75647029427921L39.136291708850855,103.10146141337106L39.37011570711135,94.97952267091199L39.837763703632355,78.51391966996584L39.9546757027626,80.3694370167716L41.53298769102096,114.20154994745025L41.56221569080353,85.36871155015206L42.059091687107085,59.16794129228731L42.146775686454774,51.1278092380295L42.234459685802456,69.11990094642022L42.67287968254089,44.85724402257267L42.760563681888584,96.3841841146845L42.78979168167114,42.700879126723635L43.082071679496764,81.73488276235344L43.57894767580033,29.028610515609444L43.63740367536545,74.70341253004335L44.25119167079926,71.42875633393601L44.33887567014694,60.463409449307505L44.748067667102816,74.38372565988834L44.89420766601562,87.39595335924139L45.507995661449435,88.96082692381327L45.683363660144806,70.08934707017727L45.97564365797043,88.06562164182424L46.15101165666581,99.58251717360878L46.20946765623092,96.6100378722461L46.355607655143736,109.13065691440801L46.3848356549263,61.016219936328525L46.82325565166474,99.75927860983899L47.34935964775086,60.55081392917316L47.407815647315985,84.29484947575702L47.75855164470672,97.10217619061513L47.96314764318466,95.80569544604896L47.992375642967225,64.38812607890236L48.050831642532344,100.27151289642808L48.13851564188004,118.57998888174694L48.19697164144516,105.32684843055887L48.54770763883591,51.615305231956995L48.839987636661526,123.10842059176366L49.190723634052276,115.5905967719882L49.33686363296509,114.09963171275899L50.0967916273117,105.20922729977008L50.213703626441955,111.97519707752627L50.3306156255722,87.32651062461429L50.35984362535477,77.16395872470241L50.5644396238327,37.20455392718702L50.827491621875765,70.29698463742466L50.94440362100602,127.39609013988809L51.06131562013626,94.15733274012251L51.20745561904907,110.8171708034127L51.32436761817932,80.52080587300281L51.58741961622238,69.30963388875216L51.70433161535263,121.19997866922176L51.762787614917755,91.11361401033321L51.82124361448288,111.15224900426648L52.025839612960816,105.50596737830637L52.171979611873624,82.83966250981882L52.23043561143875,91.62210431938053L52.37657561035156,97.49183026381849L52.435031609916685,96.13292739161062L52.55194360904693,124.18837376970447L52.66885560817718,102.94528925724228L52.84422360687255,129.10856261936618L52.873451606655124,112.68152102927331L53.54569560165405,137.6939419105901L53.662607600784305,75.19237288134502L54.62713159360886,116.23823738087867L54.831727592086786,83.69444218131866L55.007095590782164,80.56446657088247L55.41628758773803,92.29778581415945L55.533199586868285,112.12555853896816L55.73779558534623,124.13607232476585L55.796251584911346,125.08259242793076L55.971619583606724,97.69497090381043L56.03007558317185,113.90257179079953L56.43926758012771,76.45303918332365L56.46849557991028,42.04987361152655L56.760775577735906,98.65327856456179L56.84845957708359,78.49746901691128L57.11151157512665,100.6248903717024L57.2284235742569,133.88928960378598L57.34533557338715,116.38303220719604L57.60838757143021,115.0576745429214L57.63761557121276,104.81452067435015L57.81298356990814,109.98992832040665L57.842211569690704,92.96364780612078L57.98835156860351,114.37667566533696L58.33908756599426,117.90253665695172L58.514455564689634,98.05124074453659L58.60213956403732,105.81497274804053L58.86519156208038,89.62224391608561L59.18669955968857,102.95631347960176L59.74203155555725,97.40952507097921L60.12199555273056,133.7791278679192L60.29736355142594,105.61794398262094L60.38504755077362,110.92447392674586L60.44350355033875,122.58219182601357L60.56041554946899,67.31351746299902L60.73578354816437,126.54490385598729L60.881923547077186,101.43058810738415L61.1742035449028,100.22893748468744L61.349571543598174,69.46155317718785L61.46648354272842,82.5114075911979L61.49571154251099,131.4630623378004L61.78799154033661,-31.176833169037536L61.93413153924942,110.09059510074621L63.015567531204226,132.16753247542482L63.13247953033447,120.8137206588649L63.16170753011703,87.08246664052172L63.1909355298996,65.71142741154517L63.71703952598572,122.65332220655063L64.06777552337647,118.27958790977522L64.09700352315903,-28.328315354328424L64.27237152185441,26.152415307977094L64.47696752033234,105.93840457351621L65.23689551467896,112.6864853046269L65.29535151424408,107.33723455157525L65.5876315120697,127.64537880819313L65.90913950967789,134.10269372728877L65.99682350902557,119.67984589591191L66.08450750837326,134.81959532432373L66.66906750402451,110.11129342873721L66.84443550271988,38.41685489376471L67.04903150119782,111.04539765076152L67.2243994998932,84.95974042222554L67.51667949771881,85.64326297953994L67.69204749641419,101.56229718695357L67.77973149576187,81.26378549391404L68.10123949337006,109.98598701811233L68.18892349271775,114.24323220504778L68.27660749206542,134.5979710670503L68.30583549184799,102.90524271798824L69.70877948141097,100.39757225676664L69.79646348075867,116.49181526617332L69.88414748010635,111.81793963525848L69.91337547988891,140.5441525639658L70.55639147510529,103.45534258604005L70.90712747249603,116.03971829430168L70.96558347206116,129.00548120718622L71.08249547119141,95.3180800187186L71.19940747032166,108.16668395615585L71.3163194694519,127.22589754081508L72.04701946401596,133.06308307573082L72.07624746379852,127.88731972584407L72.3977554614067,115.82280646368451L72.63157945966721,127.70004815016233L72.74849145879746,111.4427058472611L72.80694745836257,112.95818591061612L73.30382345466614,137.4761576968564L73.74224345140458,123.34411981592609L73.85915545053481,103.36153543722986L74.58985544509888,89.7193692363926L75.05750344161987,112.23464797058756L75.08673144140243,130.0118114813999L75.52515143814088,106.39088061662301L75.6420634372711,12.230115464357482L75.90511543531417,94.9845232955621L76.10971143379211,131.44892246145332L76.13893943357468,134.51810127707802L76.51890343074798,91.562320112115L76.78195542879104,100.94303499313355L76.92809542770385,57.796710815801816L77.07423542661667,106.98800089610444L77.16191942596436,29.633919772321633L77.30805942487717,140.09641750767682L77.39574342422485,127.6392253915676L77.7464794216156,113.19556239517522L77.9803034198761,142.93847812949662L78.18489941835404,93.51735664004156L78.38949541683196,141.0545823676204L78.65254741487503,105.83608130380657L78.76945941400528,111.25121256042615L78.79868741378785,121.54867227800139L78.82791541357041,114.21649470107747L78.88637141313552,88.50399415788047L78.97405541248321,93.73387901391027L79.17865141096114,143.8420645207123L79.4417034090042,91.1669384283311L79.73398340682984,139.01275929786908L79.85089540596009,112.91935447641725L79.9093514055252,87.20877006042264L79.99703540487289,99.58998955042239L80.1431754037857,128.25367389997677L80.2308594031334,102.13747287684896L80.26008740291596,97.45119694306345L80.28931540269852,106.2467244993731L80.8446473985672,116.76224883954092L81.10769939661027,133.1613144532034L81.28306739530564,110.44398815429048L81.48766339378356,132.80035814960422L81.51689139356613,114.022617938942L81.7799433916092,117.78269302631844L81.98453939008714,86.64391757073952L82.33527538747788,96.04323809882072L82.59832738552095,139.0675896152943L82.71523938465117,110.42631201066746L83.0075193824768,123.46466446870659L83.12443138160705,135.89935896664696L83.38748337965012,131.29293464818548L83.76744737682343,82.02983133984685L83.85513137617112,78.20983184077545L84.03049937486648,109.9683108744893L84.08895537443162,118.17075292323148L85.08270736703874,103.60814464310556L85.2580753657341,109.5468927088823L85.75495136203766,118.95053361049298L85.81340736160278,80.93546826221336L85.87186336116791,136.64801946332892L86.04723135986328,50.12065331550912L86.13491535921098,82.21192054439587L86.19337135877609,132.31680605434937L86.71947535486221,128.8328947472994L87.12866735181808,137.59545608804186L87.1871233513832,123.52390862928092L87.71322734746933,109.00132611738246L87.83013934659958,104.29394162783092L88.06396334486008,116.64602975304655L88.56083934116363,122.0820358913831L88.736207339859,121.86331698145312L89.4376793346405,145.1389087582437L89.78841533203124,130.07903690893914L89.81764333181381,112.95760951462842L89.9053273311615,134.45820023278796L89.93455533094405,122.04038479032545L89.99301133050919,77.64775747589795L90.0514673300743,93.68884223551942L90.16837932920456,93.9906712155688L90.28529132833481,126.47380982474675L90.43143132724762,122.63260310753304L90.48988732681273,147.50772231037266L90.92830732355118,137.26665852635142L91.9220593161583,103.46161543606843L92.03897131528855,130.4351613524792L92.09742731485366,112.5627003716993L92.24356731376648,108.17298796272411L92.50661931180954,140.0426153560675L92.74044331007005,126.31216450311308L92.85735530920029,92.21966598317687L93.1496353070259,142.63778117039607L93.20809130659104,113.73780042966496L93.26654730615616,133.17597620159341L93.29577530593872,145.0733813621277L93.41268730506897,129.3535361068984L93.50037130441666,122.15415808843954L93.73419530267715,122.61529564963189L93.8511073018074,97.63747150946915L94.26029929876327,122.70630909536652L94.43566729745865,76.599682631007L94.58180729637147,120.24312498033129L94.61103529615401,86.11846252572968L94.66949129571915,115.63915423938505L94.75717529506683,135.71364781433735L94.81563129463197,113.84623038119031L94.87408729419708,130.05147894941877L94.90331529397965,95.72352526488248L95.10791129245759,119.2062301404992L95.19559529180526,149.9645998224613L95.34173529071808,95.20339798819145L95.89706728658676,150.17619686665128L96.18934728441239,134.51175832483491L96.36471528310776,125.03246155527017L96.54008328180312,141.6112043380196L96.65699528093337,128.80849917657645L96.68622328071594,114.1120475938996L97.00773127832412,136.71807753961858L97.03695927810669,126.26862843139293L97.47537927484512,114.18997529288629L97.76765927267076,95.2215622509392L98.0307112707138,134.53147002906317L98.52758726701737,115.23422826888577L99.05369126310347,115.78426063110118L99.08291926288605,138.9074294220614L99.14137526245118,134.11090607192443L99.4336552602768,110.14530079201194L99.55056725940705,117.91391917951978L100.10589925527573,106.06642679586696L100.42740725288391,145.8130869499736L100.6612312511444,95.19109634769706L100.83659924983978,-10.038865629360544L100.86582724962236,142.87794616527407L100.92428324918747,130.8161954496502L100.98273924875258,131.5372200954621L101.1288792476654,111.72124012099647L101.85957924222946,126.23955937968856L101.88880724201204,118.51977886843645L102.18108723983765,113.30882161038136L102.23954323940278,136.59144437967063L102.38568323831558,119.0804823455594L102.79487523527146,141.7701676008456L102.97024323396683,135.04866080187088L103.17483923244475,122.6202287684456L103.2332952320099,142.77683021148462L103.67171522874833,134.69042030999756L103.78862722787858,134.7626775187268L103.84708322744369,137.27580556718337L104.227047224617,132.40424688351155L104.57778322200775,106.03544680971686L104.9285192193985,138.61893284470065L104.95774721918106,83.64767621496469L104.98697521896362,123.24959606669876L105.22079921722411,131.24108237669674L105.39616721591949,137.7321008828033L105.89304321222306,126.54929173535317L106.06841121091843,55.8492401343085L106.09763921070099,123.01929730944818L106.3314632089615,143.55705228306104L106.50683120765686,111.02407099921635L106.68219920635224,111.04666987613979L106.82833920526504,140.90139864294142L107.50058320026397,145.86221562060152L107.5590391998291,122.21577014604446L107.70517919874192,147.24363947838313L107.85131919765472,142.988575249239L108.23128319482804,149.68764933950297L108.43587919330596,101.71499019612952L108.8742991900444,98.67579435737889L109.22503518743514,127.01195077424279L109.31271918678284,118.78933486593087L109.72191118373871,115.92817268878872L109.75113918352127,95.56142817342061L109.80959518308639,143.72137966350238L110.74489117612839,130.3315762429046L110.77411917591095,104.70389937952018L110.8033471756935,118.31784294798638L111.00794317417146,105.92882913026097L111.32945117177964,125.11093449370469L111.76787116851807,144.14169956107875L111.85555516786575,111.95922415808315L111.91401116743089,124.553850367964L112.79085116090775,148.70415680901846L113.17081515808106,129.28633145038572L113.43386715612411,98.69258773237209L113.69691915416718,95.62529908016654L113.87228715286255,120.45504657181164L113.9891991519928,125.91057747513719L114.48607514829635,126.59325880587494L114.54453114786149,136.87646440645688L114.57375914764405,135.7775213174616L114.6029871474266,134.51627602311694L114.92449514503478,117.70402795588802L115.45059914112092,125.43828067991257L115.94747513742446,118.50899870563933L116.18129913568497,140.8085365758408L116.85354313068389,98.83342048536855L117.11659512872696,145.1814114713913L117.17505112829208,139.00963325836818L117.23350712785721,73.99267992790385L117.35041912698746,146.71122613946764L117.37964712677002,107.3517431136442L117.7011551243782,122.15683755086889L117.7888391237259,139.02630979633685L118.02266312198638,149.00924943661985L118.11034712133409,123.81528459020188L118.37339911937714,144.52526253073634L118.81181911611556,132.2024252037077L118.92873111524581,153.35647471071738L118.98718711481095,141.82345307316865L119.42560711154938,141.26991300383887L119.80557110872269,118.72662713667364L120.47781510372162,134.0794717195678L120.91623510046006,132.49100486517477L120.94546310024262,126.18605321520806L121.15005909872055,142.73151821699153L121.29619909763336,116.12001389031894L121.44233909654616,133.75904228521242L121.55925109567642,100.21985535331356L121.61770709524156,127.18766846638715L122.08535509176255,142.85395303319117L122.40686308937073,137.26538889735147L122.61145908784866,20.43914712128344L122.64068708763122,110.74632083173452L122.84528308610916,138.74383422030715L122.93296708545684,129.65037484781095L123.63443908023834,141.3662646034056L123.72212307958603,135.60501015254616L123.92671907806397,139.48768103157826L124.01440307741166,142.50958499069768L124.04363107719422,132.30575067545L124.10208707675933,149.70825160149602L124.13131507654191,134.31216693401052L124.71587507219316,109.52464693941079L124.86201507110596,128.76173321022247L125.12506706914901,124.73224232978106L125.18352306871415,111.92967737276734L125.82653906393051,141.91932434274563L126.06036306219102,123.65125060051105L126.46955505914687,147.90410879256757L126.49878305892945,152.66412316891558L126.64492305784226,151.8086879118892L126.79106305675508,129.80526439304816L126.995659055233,110.04650859682158L127.8432710489273,131.14840205607874L127.90172704849243,134.44265052301148L127.96018304805756,141.81393994299316L128.19400704631806,130.94972718680236L128.6908830426216,138.4780455677594L128.83702304153442,129.22851529788903L129.48003903675078,137.63459389488284L129.5677230360985,118.16490068649142L129.7138630350113,140.826334749245L129.91845903348923,98.91186226726319L130.03537103261948,121.58645477535777L130.0938270321846,143.92018954445155L130.26919503087996,148.27635934187182L130.29842303066252,123.61081460450856L130.47379102935793,144.95727911265786L130.67838702783584,144.8758229355302L130.85375502653122,143.93909377502135L130.9414390258789,145.82213273205096L131.43831502218245,146.6951727322965L131.4967710217476,112.8445787807147L131.7890510195732,147.85690663465533L131.8767350189209,116.9832941044483L132.08133101739884,133.35153291828175L132.54897901391985,148.84905289409042L132.60743501348495,140.51849255699955L132.78280301218032,135.69115798530348L132.89971501131058,133.41440421937332L132.9581710108757,142.88386590785052L133.36736300783156,159.78528139582642L133.86423900413513,-72.90821424443766L134.2149750015259,56.59739174083916L134.4487989997864,155.73393420266194L134.9749029958725,133.1599721256104L135.03335899543762,144.99382054117584L135.09181499500275,128.9464862989309L135.17949899435044,95.92896110331196L135.26718299369813,131.11884228887132L135.76405899000167,144.25281936054674L136.08556698760987,120.54402964969768L136.11479498739243,142.17863503137747L136.49475898456575,145.56470961045994L137.37159897804258,134.64796173528146L137.43005497760774,156.84120128056077L138.13152697238922,123.83714609568159L138.24843897151948,130.18228448933178L138.3068949710846,135.32758712873303L138.48226296977998,128.41281631290707L138.56994696912767,138.02615890253193L138.62840296869277,138.45680200032058L138.89145496673584,138.5659381667498L139.09605096521378,119.56592720061172L139.4760149623871,118.05846475351814L139.70983896064757,91.66919223664655L140.0898029578209,154.73899943290795L140.14825895738602,137.8102207137859L140.2359429567337,148.47500824736497L140.58667895412444,147.9219537007816L140.7035909532547,147.82594741953181L140.8497309521675,134.43786280138386L140.90818695173263,144.03404592667198L141.20046694955826,148.60298633128423L141.3173789486885,145.19465819359527L141.6973429458618,131.56727057817255L142.16499094238281,114.64507367809932L142.31113094129563,123.74543682055639L142.51572693977354,144.1726613725806L143.24642693433762,143.76177671383002L143.27565493412018,115.72444526729578L143.5094789323807,137.27342988101782L143.8017589302063,138.34251461929853L144.0355829284668,143.15772410422616L144.24017892694474,105.9699817266806L144.357090926075,136.98924329167326L144.67859892368315,147.9572462713262L144.85396692237853,-43.21395463988938L145.0293349210739,134.23981365928333L145.6723509162903,122.77493137444355L145.99385891389846,102.19318077014736L146.13999891281128,110.47818764956111L146.40305091085435,144.9316995934196L146.4322789106369,149.88303719382242L146.75378690824508,48.52769213023896L146.78301490802764,145.40703155490382L147.10452290563583,136.7221201006675L147.19220690498352,146.0927298772529L147.48448690280915,148.94422833427683L147.51371490259172,132.87545579621883L147.54294290237428,126.85027429606924L148.85820289258956,145.36869343258633L149.00434289150238,124.57836017933317L149.03357089128494,146.7770521190908L149.32585088911057,154.60671006278335L151.45949487323762,134.9043047634901L151.78100287084578,148.56847267423652L151.81023087062835,147.55818292308027L151.86868687019347,132.02149398389074L151.92714286975863,143.27808441414572L152.0148268691063,135.06619933744278L152.04405486888885,129.06015054915542L152.10251086845398,149.006951641804L152.77475486345293,139.03551136111358L152.9208948623657,146.53321065250742L153.0085788617134,151.0640855545261L153.2424028599739,136.3908092447604L153.56391085758207,130.07666381915192L153.82696285562514,131.6598989712241L153.91464685497283,128.9340288757371L153.9438748547554,103.17602420605112L154.38229485149384,135.73282466463107L154.84994284801485,153.0811041239686L155.0253108467102,109.5865861406844L155.14222284584048,108.38784346170945L155.4052748438835,132.55179646722962L155.46373084344864,143.07261741917637L155.7267828414917,140.21217184245137L155.84369484062196,143.84298623501698L156.01906283931734,119.63698488255574L156.16520283823013,146.0370115984412L156.8082188334465,142.6333283815721L156.92513083257677,135.7194766836725L157.1881828306198,144.87805841726632L157.62660282735825,74.46828450911198L157.8311988258362,125.96157034540101L158.00656682453155,125.41027614332063L158.12347882366183,150.52435302511805L158.15270682344436,114.02995011132617L158.70803881931306,143.62719863621368L158.73726681909562,124.40811565269371L158.79572281866075,58.35407015764474L158.97109081735613,142.77659913381387L159.0587748167038,129.7305769742086L159.847930810833,144.85087433622445L160.02329880952834,115.62205449174974L160.14021080865862,120.47384954362684L160.22789480800628,156.04662123685813L160.4617188062668,147.25932679621073L160.5201748058319,143.565025760891L161.01705080213546,149.980095008293L161.04627880191805,116.39463282554323L161.6016107977867,117.7278730944065L161.63083879756928,148.57156496081922L161.71852279691697,145.1711531806371L161.98157479496004,143.872558984116L162.21539879322054,144.7242957002213L162.27385479278564,147.6813395324537L162.3030827925682,142.00969388665615L162.74150278930662,133.47891902794336L163.03378278713225,149.68224367983447L163.12146678647997,144.76828613814797L163.44297478408814,153.42429341070346L163.53065878343583,146.38527420841922L163.58911478300095,142.40618162760566L163.64757078256605,133.01774771383282L163.99830677995683,141.9036889524845L164.49518277626038,125.03144377496756L164.93360277299882,138.6224820938682L165.10897077169417,127.09582417958916L165.31356677017212,150.45816095615135L165.54739076843262,135.5672172696765L165.66430276756284,72.88179349862276L165.86889876604081,129.16103542527412L165.89812676582335,146.70019932072984L165.9273547656059,140.74806173194136L166.21963476343154,144.51605058044632L166.97956275777818,144.89477649728815L167.12570275669097,144.40360922441192L167.59335075321198,156.83643303177058L167.73949075212477,108.94756550782631L167.91485875082017,133.99415213149553L168.0317707499504,129.712205001195L168.06099874973296,139.784561314544L168.29482274799346,137.56022842695532L168.38250674734115,119.19750111657726L168.41173474712375,135.2542264592165L168.47019074668884,148.42548233085364L168.55787474603653,144.9441596129917L168.8209267440796,118.9091733038075L168.93783874320982,154.41285536986362L169.0547507423401,155.4813740976699L169.14243474168777,121.67957128753403L169.17166274147033,121.89403732977092L169.3470307401657,135.44765924065874L169.52239873886109,144.96501891643874L169.5808547384262,150.15677336041688L169.6685387377739,124.42494018422678L170.25309873342513,149.07291522947827L170.69151873016355,129.5984317030809L171.04225472755434,137.240281918968L171.59758672342298,138.969537387926L171.65604272298813,134.27336925272985L172.1236907195091,156.7511601785081L172.2113747188568,147.6120551769043L172.26983071842196,136.0332490040077L172.2990587182045,99.2595952160633L172.8543907140732,104.39080211754896L173.55586270885468,133.76397540402613L173.64354670820236,152.24271409063272L174.02351070537568,140.06504546839994L174.25733470363616,154.5480760511149L174.52038670167923,156.86852037327543L174.60807070102692,136.9625005949463L174.66652670059204,138.16155743569834L174.6957547003746,143.57603440498053L175.10494669733046,148.1677061018107L175.33877069559097,118.45634934600542L175.98178669080733,86.71638768249124L176.15715468950273,129.5102327314484L176.2448386888504,149.5675720348206L176.44943468732833,156.80614887501105L176.82939868450165,116.9415235699878L176.88785468406675,136.08111843114895L176.91708268384932,135.79603609128296L177.12167868232726,101.58766380316933L177.6477826784134,140.34170775336443L178.1154306749344,87.82879039671298L178.32002667341231,152.30528421183882L178.46616667232513,138.78056258806438L178.4953946721077,152.84026017615912L178.67076267080304,150.1421505577017L179.0507266679764,141.14032776173767L179.10918266754152,109.1919833703974L179.28455066623687,157.1836493012844L180.0444786605835,147.36744518233732L180.19061865949632,148.86146098609606L180.57058265666961,159.77634466163863L180.68749465579987,117.49553358379404L181.21359865188597,141.86646208008924L181.44742265014648,142.45491045597183L182.1196666451454,133.38209488752184L182.2073506444931,147.56360935377535L182.23657864427568,144.31332276460773L182.3534906434059,144.52099927752997L182.38271864318847,113.41509656789862L182.49963064231872,157.94166065449667L183.1426466375351,144.86765472932603L183.81489063253403,153.89031216314305L184.19485462970732,155.6671644395184L184.66250262622833,100.8979982147427L184.98401062383653,152.88250844423106L185.4516586203575,156.90351306212375L185.5393426197052,153.72319107962613L185.8608506173134,135.9946746112628L185.89007861709595,101.25600762894527L185.97776261644364,144.97065305739966L186.47463861274719,155.1086367274301L186.59155061187744,136.86656441591126L187.17611060752867,93.9708764272342L187.2345666070938,155.50562297301764L187.64375860404968,143.61034814089737L187.7898986029625,145.68375355656974L188.19909059991838,154.77666249686146L188.22831859970094,103.49502043957222L188.28677459926604,129.74607735279693L188.43291459817888,97.92626667033704L189.2512985920906,138.43427322561186L189.51435059013366,155.75102096840564L189.7189465886116,148.77016713150255L189.83585858774185,139.42650256915329L190.01122658643723,151.9945444613849L190.18659458513258,107.57925855333252L190.3327345840454,152.743085524664L190.4204185833931,80.72291834717885L190.4788745829582,133.9734278397213L190.91729457969666,76.70611337122364L191.18034657773973,142.66621670578962L191.41417057600023,128.62045388015446L191.91104657230377,148.7981950354994L192.0571865712166,142.9845794229999L192.11564257078172,146.3611201008803L192.46637856817244,142.53651203028556L192.52483456773757,115.88318783796433L192.70020256643295,150.7192553566911L193.0509385638237,131.32535562430485L193.19707856273652,148.50991655391778L193.48935856056215,134.30949266433782L193.78163855838775,148.39614844856033L193.84009455795288,149.2307880134086L194.2785145546913,154.4517569062772L194.6000225522995,138.78950970776546L194.65847855186465,140.98285482006906L194.77539055099487,137.08711636893727L195.1261265483856,157.56285684630515L195.21381054773332,144.88316549342767L196.41215853881837,147.9150031960109L196.49984253816604,138.9573941265093L196.6167545372963,92.9779278868973L197.02594653425217,115.62311900686217L197.34745453186036,129.2056567831333L197.55205053033828,139.53133394032295L197.75664652881622,90.42297737641377L198.04892652664185,147.06414665215712L198.1366105259895,127.25313874218006L198.28275052490235,132.55200417749546L198.42889052381514,153.5337255642615L198.60425852251052,119.07056937312217L198.95499451990128,128.30368014647786L198.98422251968384,156.3925990339119L199.48109851598738,149.84571425542921L199.56878251533507,142.53008859031445L199.77337851381301,107.84038670679047L200.12411451120377,144.11442979955223L200.56253450794222,152.0549595885829L200.62099050750732,160.91317669950152L200.82558650598529,129.76861910939726L201.1178665038109,120.66498453025321L201.35169050207136,147.52831678323074L201.41014650163652,147.95085398789496L201.46860250120164,99.66636980792856L201.61474250011443,146.03828122744116L201.8777944981575,153.6536016496238L202.17007449598313,133.30187199009762L202.19930249576566,120.87753444528772L202.4915824935913,139.61798806685326L202.60849449272158,141.2300222472842L202.63772249250414,136.63084182434392L203.1930544883728,129.91102526765746L203.3391944872856,147.78734446662537L203.39765048685072,147.96900007599444L203.514562485981,139.47375146187534L203.77761448402407,151.8645879371835L204.30371848011015,119.27961937017727L204.8882784757614,157.53400459219074L205.03441847467423,135.1869594896241L205.2974704727173,154.81924959230457L205.47283847141264,143.42797593111115L205.5020664711952,134.88120997830697L205.5312944709778,130.78088730083564L205.6189784703255,120.22684568824604L205.70666246967315,135.04551139496508L206.3496784648895,153.69574086980617L206.84655446119308,153.85425366099315L206.87578246097564,147.30473485670177L206.99269446010592,134.08698304205626L207.1388344590187,106.67757790380591L207.34343045749665,144.0599058547691L207.60648245553972,45.08766740598276L207.66493845510485,134.63089574056434L207.95721845293045,155.42517678705764L208.1325864516258,132.63036287528377L208.19104245119095,156.73798355851886L208.3664104498863,149.34690064839174L208.42486644945143,146.90362815871563L208.48332244901658,157.16259526946317L208.8340584464073,140.0340836568981L208.89251444597244,147.11476564394243L208.95097044553756,123.36253333099285L209.6232144405365,106.88276448991638L209.74012643966674,141.8042943975232L209.88626643857955,152.4758221292288L209.97395043792724,149.34844549349393L210.44159843444822,146.95505202778108L210.73387843227385,138.33089063354643L210.76310643205642,137.85512507688227L210.82156243162157,115.10074326654342L210.99693043031692,126.41334017360396L211.1722984290123,154.84689323230958L211.3768944274902,143.66099309646592L211.52303442640306,127.76726838494494L211.727630424881,144.85725104138575L211.90299842357635,147.06257324689338L212.28296242074964,143.38673505782853L212.48755841922758,146.60826156431222L213.04289041509628,127.25709562274432L213.6274504107475,156.53437686861793L213.7151344100952,152.14438405078386L213.83204640922548,123.76264042332463L213.86127440900802,151.4483495463309L214.065870407486,-30.790201280202155L214.5627464037895,150.46731578611826L214.8842544013977,153.28403575550553L215.20576239900586,153.43998462309852L215.41035839748383,81.741446406754L215.5857263961792,139.94790726397923L216.2871983909607,134.23674733648386L216.95944238595962,142.7870184000241L217.66091438074113,134.75725108803172L217.89473837900164,108.24296555128575L218.01165037813186,121.53353019962162L218.39161437530518,132.24093728337283L218.71312237291335,141.23770233436366L218.83003437204363,138.14329710695264L219.06385837030413,162.49294049375584L219.0930863700867,154.83250929640013L219.20999836921692,153.88897892287417L219.47305036726,145.18864238502087L219.50227836704255,152.78813009218982L219.79455836486815,153.6540871723702L219.82378636465072,147.0394395160354L219.85301436443328,156.30428062887654L220.08683836269378,148.48636740252812L220.20375036182404,71.61089746605148L220.67139835834504,133.38636073710654L221.3728703531265,144.6837013251411L221.48978235225678,149.4625667063033L221.5482383518219,153.4333352982133L221.57746635160447,136.67009646820944L221.66515035095213,143.57411827777815L221.9282023489952,139.17873018578888L221.95743034877776,148.1346827659204L222.22048234682083,126.27584117037424L222.30816634616855,146.4450532229281L222.60044634399415,130.4981702616219L222.74658634290697,122.66666239837423L223.7987943350792,129.82369348638485L224.06184633312225,136.36168826548956L224.1203023326874,152.32046523589344L224.23721433181763,140.88590864986637L224.412582330513,155.66675810631082L224.5002663298607,153.37765985964393L224.70486232833863,146.2647373447737L224.79254632768632,149.033180255623L224.9386863265991,142.55461657633188L225.02637032594683,144.9911981990696L225.26019432420733,156.82619681023212L225.37710632333756,136.70415056629398L225.49401832246778,135.50678656420854L225.7862983202934,139.36017029575714L225.81552632007597,158.61548963334212L226.16626231746676,141.0369399769156L226.28317431659698,121.6954351590876L226.48777031507493,147.08422444572892L226.60468231420518,152.5912337420647L226.92619031181334,150.51672486560506L227.2769263092041,147.57173601792636L227.7445743057251,152.6564781329435L228.47527430028913,138.82838787677414L228.9136942970276,79.03971743691432L229.1475182952881,151.57669112321537L229.32288629398346,159.12770834166128L229.4397982931137,151.1521728818907L229.55671029224396,145.93977723024466L229.79053429050447,142.23873340042007L229.96590228919985,138.59251988802072L229.9951302889824,161.12532287770682L230.49200628528595,150.61076828484264L230.755058283329,157.83378243336495L230.9304262820244,155.27019766676827L231.1642502802849,121.06096857380805L231.25193427963256,136.03514176380517L231.36884627876282,-49.279489051935116L231.66112627658842,123.90610071118397L231.89495027484892,136.82342559007452L231.9826342741966,155.57845917411288L232.3918262711525,155.6316239148439L232.50873827028275,153.79825237694422L232.74256226854325,118.87445453287228L232.8302462678909,147.47677607714076L233.00561426658632,134.56228125062228L233.53171826267243,141.9221543951177L233.59017426223755,157.01951794740646L234.1162782583237,141.88810808616813L234.2331902574539,147.29146217071457L234.3208742568016,158.8808057450351L234.75929425354005,147.7749337782414L234.84697825288774,152.0977115540495L234.96389025201796,112.14723829796526L235.1684862504959,134.69428112456387L235.5484502476692,143.24215053815533L235.7238182463646,157.5807614712206L236.13301024332046,100.64977925430674L236.4837462407112,148.01901670800882L236.68834223918913,106.72505008506374L236.92216623744963,134.34374927993156L237.15599023571014,146.09846008421178L237.1852182354927,139.54980717209114L237.33135823440554,138.50233468697112L237.44827023353577,155.97869348898251L237.82823423070906,150.31644283814674L237.94514622983934,147.87772958880583L238.3543382267952,146.34626622049439L238.70507422418595,132.86593228053005L238.73430222396848,154.09079930448888L238.93889822244645,153.8440745597778L239.17272222070696,154.96021605878465L239.3480902194023,143.00187389900944L239.5234582180977,135.01611779597033L239.72805421657563,145.6926305740561L239.78651021614075,157.83248554239262L240.04956221418382,72.8064881417423L240.10801821374892,121.77915797449123L240.13724621353148,146.21837122068146L240.69257820940018,150.12923617192308L240.78026220874787,155.81817239916268L241.0433142067909,125.32776843297216L241.42327820396423,150.3442344717162L241.7447862015724,149.61066931860418L241.8324702009201,138.72511952535493L242.12475019874574,154.05845362334088L242.59239819526672,150.95899454552412L242.9139061928749,132.61798853619632L243.0015901922226,141.83489790881646L243.44001018896103,158.35975805222856L243.73229018678666,142.92537161172208L243.7615181865692,112.74676801653044L243.90765818548203,148.22166143974107L243.9368861852646,156.14009085648632L244.08302618417738,152.57415216907765L244.14148218374254,131.82322155325443L244.25839418287276,152.4511850953218L244.28762218265533,148.17557572450772L244.3168501824379,147.23237638921793L244.75527017917634,132.23378685747127L244.95986617765425,159.20836093969797L244.9890941774368,119.82390854354219L245.1060061765671,146.60016086394444L245.1644621761322,128.17400143475703L245.42751417417526,129.14862473689016L245.5444261733055,146.98960463050364L245.6321101726532,157.97118407240757L246.3920381669998,140.25616487675637L246.42126616678237,135.83717570581098L246.68431816482544,141.4930847025928L246.77200216417313,148.26716037347342L246.88891416330338,149.4304339281778L246.97659816265104,152.15419316808817L247.26887816047667,151.10522776543243L247.29810616025924,94.95983173771032L247.3273341600418,161.49011662846738L247.3565621598244,159.78637317291123L247.50270215873718,157.0813714681954L247.67807015743256,143.96607793493234L247.7949821565628,152.6491070148845L247.85343815612794,156.83777276298525L248.20417415351866,157.3034799500261L248.32108615264895,142.480344578024L248.4964541513443,124.72621873207169L248.52568215112686,147.10575101840496L248.75950614938736,111.14369134131385L248.93487414808274,154.94388094456548L249.08101414699553,117.54759616192695L249.31483814525603,155.22911517256335L249.51943414373397,148.55347858942116L249.8117141415596,139.7328284764581L250.33781813764574,145.92074837351535L250.57164213590622,155.95985157149244L251.24388613090517,125.77950710463523L251.44848212938308,153.56665932509964L251.62385012807846,36.09418677357053L251.71153412742615,123.00933240944448L252.61760212068558,152.86598768896178L252.6468301204681,137.90512093787007L253.11447811698915,140.13128427217646L253.14370611677168,156.4231973524485L253.4359861145973,105.00743158374945L253.523670113945,133.4067838489953L253.58212611351016,116.92444459337906L253.90363411111832,158.66866865415392L254.07900210981367,141.27322078982237L254.1666861091614,108.17517930602872L254.2835981082916,149.2903982633265L254.75124610481262,154.47122714732143L254.80970210437775,137.8058432199333L254.8389301041603,155.39388653369792L254.95584210329054,139.21678011011252L255.04352610263825,138.31309765289888L255.10198210220338,141.217167578207L255.18966610155104,156.67780340355907L255.51117409915923,149.78100731486327L255.62808609828951,157.02512352820582L255.94959409589768,148.23654647666686L256.03727809524537,142.9575822811973L256.62183809089663,153.31453541166587L256.85566208915714,155.12563002355415L257.1479420869827,155.69064478688247L257.1771700867653,154.34174576035315L257.49867808437347,71.32341607261503L258.1709220793724,132.20808530845184L258.31706207828523,159.83037399635123L258.81393807458875,140.01947383607455L259.3108140708923,144.07352905182992L259.4861820695877,146.98514664892303L259.5446380691528,151.09564453304222L259.866146066761,159.98347593511303" fill="none"></path></g></g></g></g></g></g><g transform="translate(37, 174)" clip-path="url(#clip_1)"><clipPath id="clip_1"><rect width="292" height="25"></rect></clipPath><g><g><line x1="0" y1="0" x2="0" y2="5" style="visibility: inherit;" fill="rgb(0, 0, 0)" stroke="rgb(204, 204, 204)" stroke-width="1px"></line><line x1="29.227999782562257" y1="0" x2="29.227999782562257" y2="5" style="visibility: inherit;" fill="rgb(0, 0, 0)" stroke="rgb(204, 204, 204)" stroke-width="1px"></line><line x1="58.455999565124515" y1="0" x2="58.455999565124515" y2="5" style="visibility: inherit;" fill="rgb(0, 0, 0)" stroke="rgb(204, 204, 204)" stroke-width="1px"></line><line x1="87.68399934768676" y1="0" x2="87.68399934768676" y2="5" style="visibility: inherit;" fill="rgb(0, 0, 0)" stroke="rgb(204, 204, 204)" stroke-width="1px"></line><line x1="116.91199913024903" y1="0" x2="116.91199913024903" y2="5" style="visibility: inherit;" fill="rgb(0, 0, 0)" stroke="rgb(204, 204, 204)" stroke-width="1px"></line><line x1="146.13999891281128" y1="0" x2="146.13999891281128" y2="5" style="visibility: inherit;" fill="rgb(0, 0, 0)" stroke="rgb(204, 204, 204)" stroke-width="1px"></line><line x1="175.36799869537353" y1="0" x2="175.36799869537353" y2="5" style="visibility: inherit;" fill="rgb(0, 0, 0)" stroke="rgb(204, 204, 204)" stroke-width="1px"></line><line x1="204.59599847793578" y1="0" x2="204.59599847793578" y2="5" style="visibility: inherit;" fill="rgb(0, 0, 0)" stroke="rgb(204, 204, 204)" stroke-width="1px"></line><line x1="233.82399826049806" y1="0" x2="233.82399826049806" y2="5" style="visibility: inherit;" fill="rgb(0, 0, 0)" stroke="rgb(204, 204, 204)" stroke-width="1px"></line><line x1="263.05199804306034" y1="0" x2="263.05199804306034" y2="5" style="visibility: inherit;" fill="rgb(0, 0, 0)" stroke="rgb(204, 204, 204)" stroke-width="1px"></line><line x1="292.27999782562256" y1="0" x2="292.27999782562256" y2="5" style="visibility: inherit;" fill="rgb(0, 0, 0)" stroke="rgb(204, 204, 204)" stroke-width="1px"></line></g><g transform="translate(0, 8)"><text style="text-anchor: middle; visibility: hidden; font-family: &quot;Helvetica Neue&quot;, sans-serif; font-size: 12px; font-weight: 200;" x="0" y="0" dx="0em" dy="0.95em" fill="rgb(50, 49, 63)" stroke="none" stroke-width="1px">-10k</text><text style="text-anchor: middle; visibility: inherit; font-family: &quot;Helvetica Neue&quot;, sans-serif; font-size: 12px; font-weight: 200;" x="29.227999782562257" y="0" dx="0em" dy="0.95em" fill="rgb(50, 49, 63)" stroke="none" stroke-width="1px">0</text><text style="text-anchor: middle; visibility: inherit; font-family: &quot;Helvetica Neue&quot;, sans-serif; font-size: 12px; font-weight: 200;" x="58.455999565124515" y="0" dx="0em" dy="0.95em" fill="rgb(50, 49, 63)" stroke="none" stroke-width="1px">10k</text><text style="text-anchor: middle; visibility: inherit; font-family: &quot;Helvetica Neue&quot;, sans-serif; font-size: 12px; font-weight: 200;" x="87.68399934768676" y="0" dx="0em" dy="0.95em" fill="rgb(50, 49, 63)" stroke="none" stroke-width="1px">20k</text><text style="text-anchor: middle; visibility: inherit; font-family: &quot;Helvetica Neue&quot;, sans-serif; font-size: 12px; font-weight: 200;" x="116.91199913024903" y="0" dx="0em" dy="0.95em" fill="rgb(50, 49, 63)" stroke="none" stroke-width="1px">30k</text><text style="text-anchor: middle; visibility: inherit; font-family: &quot;Helvetica Neue&quot;, sans-serif; font-size: 12px; font-weight: 200;" x="146.13999891281128" y="0" dx="0em" dy="0.95em" fill="rgb(50, 49, 63)" stroke="none" stroke-width="1px">40k</text><text style="text-anchor: middle; visibility: inherit; font-family: &quot;Helvetica Neue&quot;, sans-serif; font-size: 12px; font-weight: 200;" x="175.36799869537353" y="0" dx="0em" dy="0.95em" fill="rgb(50, 49, 63)" stroke="none" stroke-width="1px">50k</text><text style="text-anchor: middle; visibility: inherit; font-family: &quot;Helvetica Neue&quot;, sans-serif; font-size: 12px; font-weight: 200;" x="204.59599847793578" y="0" dx="0em" dy="0.95em" fill="rgb(50, 49, 63)" stroke="none" stroke-width="1px">60k</text><text style="text-anchor: middle; visibility: inherit; font-family: &quot;Helvetica Neue&quot;, sans-serif; font-size: 12px; font-weight: 200;" x="233.82399826049806" y="0" dx="0em" dy="0.95em" fill="rgb(50, 49, 63)" stroke="none" stroke-width="1px">70k</text><text style="text-anchor: middle; visibility: inherit; font-family: &quot;Helvetica Neue&quot;, sans-serif; font-size: 12px; font-weight: 200;" x="263.05199804306034" y="0" dx="0em" dy="0.95em" fill="rgb(50, 49, 63)" stroke="none" stroke-width="1px">80k</text><text style="text-anchor: middle; visibility: hidden; font-family: &quot;Helvetica Neue&quot;, sans-serif; font-size: 12px; font-weight: 200;" x="292.27999782562256" y="0" dx="0em" dy="0.95em" fill="rgb(50, 49, 63)" stroke="none" stroke-width="1px">90k</text></g><line x1="0" y1="0" x2="292.27999782562256" y2="0" fill="rgb(0, 0, 0)" stroke="rgb(204, 204, 204)" stroke-width="1px"></line></g></g></g></g></svg>