<svg viewBox="0 0 330 200" xmlns="http://www.w3.org/2000/svg"><g><g><g><g><g><line x1="37.72000217437744" y1="174.23999977111816" x2="32.72000217437744" y2="174.23999977111816" style="visibility: inherit;" fill="rgb(0, 0, 0)" stroke="rgb(204, 204, 204)" stroke-width="1px"></line><line x1="37.72000217437744" y1="156.81599979400636" x2="32.72000217437744" y2="156.81599979400636" style="visibility: inherit;" fill="rgb(0, 0, 0)" stroke="rgb(204, 204, 204)" stroke-width="1px"></line><line x1="37.72000217437744" y1="139.39199981689453" x2="32.72000217437744" y2="139.39199981689453" style="visibility: inherit;" fill="rgb(0, 0, 0)" stroke="rgb(204, 204, 204)" stroke-width="1px"></line><line x1="37.72000217437744" y1="121.96799983978272" x2="32.72000217437744" y2="121.96799983978272" style="visibility: inherit;" fill="rgb(0, 0, 0)" stroke="rgb(204, 204, 204)" stroke-width="1px"></line><line x1="37.72000217437744" y1="104.5439998626709" x2="32.72000217437744" y2="104.5439998626709" style="visibility: inherit;" fill="rgb(0, 0, 0)" stroke="rgb(204, 204, 204)" stroke-width="1px"></line><line x1="37.72000217437744" y1="87.11999988555908" x2="32.72000217437744" y2="87.11999988555908" style="visibility: inherit;" fill="rgb(0, 0, 0)" stroke="rgb(204, 204, 204)" stroke-width="1px"></line><line x1="37.72000217437744" y1="69.69599990844726" x2="32.72000217437744" y2="69.69599990844726" style="visibility: inherit;" fill="rgb(0, 0, 0)" stroke="rgb(204, 204, 204)" stroke-width="1px"></line><line x1="37.72000217437744" y1="52.27199993133546" x2="32.72000217437744" y2="52.27199993133546" style="visibility: inherit;" fill="rgb(0, 0, 0)" stroke="rgb(204, 204, 204)" stroke-width="1px"></line><line x1="37.72000217437744" y1="34.84799995422364" x2="32.72000217437744" y2="34.84799995422364" style="visibility: inherit;" fill="rgb(0, 0, 0)" stroke="rgb(204, 204, 204)" stroke-width="1px"></line><line x1="37.72000217437744" y1="17.423999977111805" x2="32.72000217437744" y2="17.423999977111805" style="visibility: inherit;" fill="rgb(0, 0, 0)" stroke="rgb(204, 204, 204)" stroke-width="1px"></line><line x1="37.72000217437744" y1="0" x2="32.72000217437744" y2="0" style="visibility: inherit;" fill="rgb(0, 0, 0)" stroke="rgb(204, 204, 204)" stroke-width="1px"></line></g><g transform="translate(27.72000217437744, 0)"><text style="text-anchor: end; visibility: hidden; font-family: &quot;Helvetica Neue&quot;, sans-serif; font-size: 12px; font-weight: 200;" x="0" y="174.23999977111816" dx="0em" dy="0.3em" fill="rgb(50, 49, 63)" stroke="none" stroke-width="1px">0</text><text style="text-anchor: end; visibility: inherit; font-family: &quot;Helvetica Neue&quot;, sans-serif; font-size: 12px; font-weight: 200;" x="0" y="156.81599979400636" dx="0em" dy="0.3em" fill="rgb(50, 49, 63)" stroke="none" stroke-width="1px">0.1</text><text style="text-anchor: end; visibility: hidden; font-family: &quot;Helvetica Neue&quot;, sans-serif; font-size: 12px; font-weight: 200;" x="0" y="139.39199981689453" dx="0em" dy="0.3em" fill="rgb(50, 49, 63)" stroke="none" stroke-width="1px">0.2</text><text style="text-anchor: end; visibility: inherit; font-family: &quot;Helvetica Neue&quot;, sans-serif; font-size: 12px; font-weight: 200;" x="0" y="121.96799983978272" dx="0em" dy="0.3em" fill="rgb(50, 49, 63)" stroke="none" stroke-width="1px">0.3</text><text style="text-anchor: end; visibility: hidden; font-family: &quot;Helvetica Neue&quot;, sans-serif; font-size: 12px; font-weight: 200;" x="0" y="104.5439998626709" dx="0em" dy="0.3em" fill="rgb(50, 49, 63)" stroke="none" stroke-width="1px">0.4</text><text style="text-anchor: end; visibility: inherit; font-family: &quot;Helvetica Neue&quot;, sans-serif; font-size: 12px; font-weight: 200;" x="0" y="87.11999988555908" dx="0em" dy="0.3em" fill="rgb(50, 49, 63)" stroke="none" stroke-width="1px">0.5</text><text style="text-anchor: end; visibility: hidden; font-family: &quot;Helvetica Neue&quot;, sans-serif; font-size: 12px; font-weight: 200;" x="0" y="69.69599990844726" dx="0em" dy="0.3em" fill="rgb(50, 49, 63)" stroke="none" stroke-width="1px">0.6</text><text style="text-anchor: end; visibility: inherit; font-family: &quot;Helvetica Neue&quot;, sans-serif; font-size: 12px; font-weight: 200;" x="0" y="52.27199993133546" dx="0em" dy="0.3em" fill="rgb(50, 49, 63)" stroke="none" stroke-width="1px">0.7</text><text style="text-anchor: end; visibility: hidden; font-family: &quot;Helvetica Neue&quot;, sans-serif; font-size: 12px; font-weight: 200;" x="0" y="34.84799995422364" dx="0em" dy="0.3em" fill="rgb(50, 49, 63)" stroke="none" stroke-width="1px">0.8</text><text style="text-anchor: end; visibility: inherit; font-family: &quot;Helvetica Neue&quot;, sans-serif; font-size: 12px; font-weight: 200;" x="0" y="17.423999977111805" dx="0em" dy="0.3em" fill="rgb(50, 49, 63)" stroke="none" stroke-width="1px">0.9</text><text style="text-anchor: end; visibility: hidden; font-family: &quot;Helvetica Neue&quot;, sans-serif; font-size: 12px; font-weight: 200;" x="0" y="0" dx="0em" dy="0.3em" fill="rgb(50, 49, 63)" stroke="none" stroke-width="1px">1</text></g><line x1="37.72000217437744" y1="0" x2="37.72000217437744" y2="174.23999977111816" fill="rgb(0, 0, 0)" stroke="rgb(204, 204, 204)" stroke-width="1px"></line></g></g><g transform="translate(37, 0)" clip-path="url(#clip_0)"><clipPath id="clip_0"><rect width="292" height="174"></rect></clipPath><g><g><g><line x1="0" y1="0" x2="0" y2="174.23999977111816" fill="rgb(0, 0, 0)" stroke="rgb(60, 60, 60)" stroke-width="1px" opacity="0.25"></line><line x1="29.227999782562257" y1="0" x2="29.227999782562257" y2="174.23999977111816" fill="rgb(0, 0, 0)" stroke="rgb(60, 60, 60)" stroke-width="1px" opacity="0.25"></line><line x1="58.455999565124515" y1="0" x2="58.455999565124515" y2="174.23999977111816" fill="rgb(0, 0, 0)" stroke="rgb(60, 60, 60)" stroke-width="1px" opacity="0.25"></line><line x1="87.68399934768676" y1="0" x2="87.68399934768676" y2="174.23999977111816" fill="rgb(0, 0, 0)" stroke="rgb(60, 60, 60)" stroke-width="1px" opacity="0.25"></line><line x1="116.91199913024903" y1="0" x2="116.91199913024903" y2="174.23999977111816" fill="rgb(0, 0, 0)" stroke="rgb(60, 60, 60)" stroke-width="1px" opacity="0.25"></line><line x1="146.13999891281128" y1="0" x2="146.13999891281128" y2="174.23999977111816" fill="rgb(0, 0, 0)" stroke="rgb(60, 60, 60)" stroke-width="1px" opacity="0.25"></line><line x1="175.36799869537353" y1="0" x2="175.36799869537353" y2="174.23999977111816" fill="rgb(0, 0, 0)" stroke="rgb(60, 60, 60)" stroke-width="1px" opacity="0.25"></line><line x1="204.59599847793578" y1="0" x2="204.59599847793578" y2="174.23999977111816" fill="rgb(0, 0, 0)" stroke="rgb(60, 60, 60)" stroke-width="1px" opacity="0.25"></line><line x1="233.82399826049806" y1="0" x2="233.82399826049806" y2="174.23999977111816" fill="rgb(0, 0, 0)" stroke="rgb(60, 60, 60)" stroke-width="1px" opacity="0.25"></line><line x1="263.05199804306034" y1="0" x2="263.05199804306034" y2="174.23999977111816" fill="rgb(0, 0, 0)" stroke="rgb(60, 60, 60)" stroke-width="1px" opacity="0.25"></line><line x1="292.27999782562256" y1="0" x2="292.27999782562256" y2="174.23999977111816" fill="rgb(0, 0, 0)" stroke="rgb(60, 60, 60)" stroke-width="1px" opacity="0.25"></line></g><g><line x1="0" y1="174.23999977111816" x2="292.27999782562256" y2="174.23999977111816" fill="rgb(0, 0, 0)" stroke="rgb(60, 60, 60)" stroke-width="1px" opacity="0.25"></line><line x1="0" y1="156.81599979400636" x2="292.27999782562256" y2="156.81599979400636" fill="rgb(0, 0, 0)" stroke="rgb(60, 60, 60)" stroke-width="1px" opacity="0.25"></line><line x1="0" y1="139.39199981689453" x2="292.27999782562256" y2="139.39199981689453" fill="rgb(0, 0, 0)" stroke="rgb(60, 60, 60)" stroke-width="1px" opacity="0.25"></line><line x1="0" y1="121.96799983978272" x2="292.27999782562256" y2="121.96799983978272" fill="rgb(0, 0, 0)" stroke="rgb(60, 60, 60)" stroke-width="1px" opacity="0.25"></line><line x1="0" y1="104.5439998626709" x2="292.27999782562256" y2="104.5439998626709" fill="rgb(0, 0, 0)" stroke="rgb(60, 60, 60)" stroke-width="1px" opacity="0.25"></line><line x1="0" y1="87.11999988555908" x2="292.27999782562256" y2="87.11999988555908" fill="rgb(0, 0, 0)" stroke="rgb(60, 60, 60)" stroke-width="1px" opacity="0.25"></line><line x1="0" y1="69.69599990844726" x2="292.27999782562256" y2="69.69599990844726" fill="rgb(0, 0, 0)" stroke="rgb(60, 60, 60)" stroke-width="1px" opacity="0.25"></line><line x1="0" y1="52.27199993133546" x2="292.27999782562256" y2="52.27199993133546" fill="rgb(0, 0, 0)" stroke="rgb(60, 60, 60)" stroke-width="1px" opacity="0.25"></line><line x1="0" y1="34.84799995422364" x2="292.27999782562256" y2="34.84799995422364" fill="rgb(0, 0, 0)" stroke="rgb(60, 60, 60)" stroke-width="1px" opacity="0.25"></line><line x1="0" y1="17.423999977111805" x2="292.27999782562256" y2="17.423999977111805" fill="rgb(0, 0, 0)" stroke="rgb(60, 60, 60)" stroke-width="1px" opacity="0.25"></line><line x1="0" y1="0" x2="292.27999782562256" y2="0" fill="rgb(0, 0, 0)" stroke="rgb(60, 60, 60)" stroke-width="1px" opacity="0.25"></line></g></g></g><g><g><line x1="0" y1="174.23999977111816" x2="292.27999782562256" y2="174.23999977111816" fill="rgb(0, 0, 0)" stroke="rgb(153, 153, 153)" stroke-width="1.5px"></line></g></g><g><g><line x1="29.227999782562257" y1="0" x2="29.227999782562257" y2="174.23999977111816" fill="rgb(0, 0, 0)" stroke="rgb(153, 153, 153)" stroke-width="1.5px"></line></g></g><g><g><g><g><g><path style="fill: none;" stroke="rgb(204, 51, 17)" stroke-width="2px" d="M29.37413978147507,101.43433208492593L29.75410377864838,84.32160904894307L29.92947177734375,86.79298169081692L30.397119773864745,85.46923881333879L30.45557577342987,81.16259957484584L30.543259772777557,87.86106516758973L30.777083771038058,85.61464354829553L30.864767770385743,92.01564688168865L31.303187767124175,90.16337250994597L31.39087176647186,94.32402443343865L31.975431762123108,85.92251743815353L32.209255760383606,75.05026484117451L32.32616775951386,74.00598892428614L32.910727755165105,78.96218614174371L33.29069175233841,90.27709272450494L33.758339748859406,85.73215652988168L33.846023748207095,84.70187473096703L34.10907574625015,84.74342667104601L34.430583743858335,94.87998508634047L34.57672374277115,92.26647178901081L34.63517974233627,80.65027651263847L34.66440774211883,84.3655622308793L34.781319741249085,77.03423013926842L35.27819573755264,74.71775660394127L35.74584373407364,79.15167234425884L35.92121173276901,85.11627842042228L36.067351731681825,82.63702236208583L36.50577172842026,75.49987643120362L36.68113972711563,72.9826601625125L36.82727972602844,79.4454554029331L37.03187572450638,77.22784607085455L37.14878772363662,67.97009250886315L37.20724372320175,77.63900053302233L37.76257571907044,80.22689267077983L38.23022371559143,89.08437435222028L38.288679715156555,81.93407868946562L38.52250371341705,79.21274529502604L38.8732397108078,74.49212444569122L39.136291708850855,70.15008465237975L39.37011570711135,65.55916310111104L39.837763703632355,67.8659776185877L39.9546757027626,67.70314827650388L41.53298769102096,54.863348091894395L41.56221569080353,58.01961585167112L42.059091687107085,64.19106142327733L42.146775686454774,71.13589552050207L42.234459685802456,72.04103443563369L42.67287968254089,78.24189201978707L42.760563681888584,76.66686242195404L42.78979168167114,85.41608157382957L43.082071679496764,80.52363590533139L43.57894767580033,85.86451490415129L43.63740367536545,81.2589348288615L44.25119167079926,81.97618770838456L44.33887567014694,84.39592604923907L44.748067667102816,83.22722156421122L44.89420766601562,79.00125951701474L45.507995661449435,73.47951488081551L45.683363660144806,76.49841169810965L45.97564365797043,74.85904252525744L46.15101165666581,72.86391356895638L46.20946765623092,66.55728412745523L46.355607655143736,58.67162276356633L46.3848356549263,65.66225925121564L46.82325565166474,66.48049355760291L47.34935964775086,69.97830610861578L47.407815647315985,66.87832140484159L47.75855164470672,64.73287021002724L47.96314764318466,66.09005443427546L47.992375642967225,69.1754274734705L48.050831642532344,60.18692134983135L48.13851564188004,53.68124671611079L48.19697164144516,53.65030073969051L48.54770763883591,61.76083582336629L48.839987636661526,50.42354194658411L49.190723634052276,46.6080350890949L49.33686363296509,45.81458137928314L50.0967916273117,51.6709263318149L50.213703626441955,52.338620773503266L50.3306156255722,57.36204957767691L50.35984362535477,61.06179998977355L50.5644396238327,63.28168762487937L50.827491621875765,68.09201524760778L50.94440362100602,57.71940503400461L51.06131562013626,55.796388567551915L51.20745561904907,56.31768305178235L51.32436761817932,58.81368988395347L51.58741961622238,68.22810014427384L51.70433161535263,60.98920915079968L51.762787614917755,58.77111199012539L51.82124361448288,54.41200003177467L52.025839612960816,56.83141308391504L52.171979611873624,65.85727391794511L52.23043561143875,67.90078457486169L52.37657561035156,65.2961819286335L52.435031609916685,66.9200572347514L52.55194360904693,59.0983220852806L52.66885560817718,56.87553764518523L52.84422360687255,51.95332318548792L52.873451606655124,57.515633521310534L53.54569560165405,46.458910164533265L53.662607600784305,61.551785377907834L54.62713159360886,57.96967848365426L54.831727592086786,60.75616277277794L55.007095590782164,59.432784074521464L55.41628758773803,59.59956223226567L55.533199586868285,57.83407106585571L55.73779558534623,52.256824677455995L55.796251584911346,47.300261167362635L55.971619583606724,46.3836184687604L56.03007558317185,42.96830712017817L56.43926758012771,59.571277856412564L56.46849557991028,76.92414762212346L56.760775577735906,65.3572569539636L56.84845957708359,64.60275088661706L57.11151157512665,68.24311927757562L57.2284235742569,55.851052233916604L57.34533557338715,53.01352443835765L57.60838757143021,51.375456102307254L57.63761557121276,55.55640447301373L57.81298356990814,55.77890184698187L57.842211569690704,56.950689885629956L57.98835156860351,48.124680384910434L58.33908756599426,44.85569959407849L58.514455564689634,56.26936918840511L58.60213956403732,59.71177894965801L58.86519156208038,60.6086426965862L59.18669955968857,60.18428142330235L59.74203155555725,62.565773801987405L60.12199555273056,53.00299091416933L60.29736355142594,54.57353626358375L60.38504755077362,53.18258758976174L60.44350355033875,50.21717692708596L60.56041554946899,60.182550249770514L60.73578354816437,57.18594482936015L60.881923547077186,57.46645512327281L61.1742035449028,54.91799410653387L61.349571543598174,64.1761299800316L61.46648354272842,73.44868669494066L61.49571154251099,56.939608915493636L61.78799154033661,66.48920720899409L61.93413153924942,62.52697669968735L63.015567531204226,52.31631514313219L63.13247953033447,48.66309526512387L63.16170753011703,57.99283516766644L63.1909355298996,55.3821978844705L63.71703952598572,53.9674024665633L64.06777552337647,53.00417656026849L64.09700352315903,71.63204612126773L64.27237152185441,70.63943880280799L64.47696752033234,69.3365503350551L65.23689551467896,57.803617576753666L65.29535151424408,55.41861752503836L65.5876315120697,46.38603658663624L65.90913950967789,37.36108646277927L65.99682350902557,39.185866012743986L66.08450750837326,37.192098706496864L66.66906750402451,41.93752341168428L66.84443550271988,47.39893655655811L67.04903150119782,51.69175766678771L67.2243994998932,56.91058839097688L67.51667949771881,59.666525295679506L67.69204749641419,57.64832660195469L67.77973149576187,60.18375697872949L68.10123949337006,57.716400666119014L68.18892349271775,57.28605366489309L68.27660749206542,56.45184412595543L68.30583549184799,58.96914916339912L69.70877948141097,63.795364865072884L69.79646348075867,55.40880022970006L69.88414748010635,56.25072498140986L69.91337547988891,45.661152300317895L70.55639147510529,53.740360069645746L70.90712747249603,52.75508551786558L70.96558347206116,48.44773487859314L71.08249547119141,58.89420249915253L71.19940747032166,63.097272706616266L71.3163194694519,59.184695295326804L72.04701946401596,51.0165629988077L72.07624746379852,45.106319738249994L72.3977554614067,49.507700291250856L72.63157945966721,43.46017852536406L72.74849145879746,50.40948107617402L72.80694745836257,51.709005237383224L73.30382345466614,43.709990745548936L73.74224345140458,42.26810633421542L73.85915545053481,50.62561059351334L74.58985544509888,57.71947984939408L75.05750344161987,52.875042572409015L75.08673144140243,47.961309141044396L75.52515143814088,53.164027025925265L75.6420634372711,67.77152033637046L75.90511543531417,58.56896200969125L76.10971143379211,49.243770158328644L76.13893943357468,47.87750312545215L76.51890343074798,55.58291166436402L76.78195542879104,63.62859052955332L76.92809542770385,65.45057985334724L77.07423542661667,54.91817586386546L77.16191942596436,66.05605848233964L77.30805942487717,49.3221184255234L77.39574342422485,44.28083783136955L77.7464794216156,42.52224217600329L77.9803034198761,38.466672604870666L78.18489941835404,46.34728796763069L78.38949541683196,39.851160587482354L78.65254741487503,45.85863422801651L78.76945941400528,48.41384923341745L78.79868741378785,50.731990106964716L78.82791541357041,54.697700936914885L78.88637141313552,58.26235129120772L78.97405541248321,53.92282863463832L79.17865141096114,42.25893033351244L79.4417034090042,50.268983251304235L79.73398340682984,39.91840936621887L79.85089540596009,42.94047478637614L79.9093514055252,55.612071442267265L79.99703540487289,57.517399755023405L80.1431754037857,49.24379428007143L80.2308594031334,54.98113391454493L80.26008740291596,55.848549375399884L80.28931540269852,58.24598493179586L80.8446473985672,57.51048831026773L81.10769939661027,46.13860791991607L81.28306739530564,44.65828207355369L81.48766339378356,41.679898160584L81.51689139356613,48.49978717786942L81.7799433916092,44.2749932355791L81.98453939008714,55.01912555790075L82.33527538747788,61.98486399907355L82.59832738552095,49.47852183407828L82.71523938465117,51.457296684673125L83.0075193824768,54.7112953569636L83.12443138160705,47.33297554030713L83.38748337965012,41.74723454447454L83.76744737682343,55.4290246009612L83.85513137617112,66.11315754578652L84.03049937486648,62.32884774096007L84.08895537443162,59.53406761436804L85.08270736703874,66.69849085904374L85.2580753657341,63.29380248503567L85.75495136203766,55.09411238207912L85.81340736160278,59.690843252567404L85.87186336116791,50.80227637481515L86.04723135986328,56.87971216472391L86.13491535921098,50.103650531480085L86.19337135877609,45.005269801364506L86.71947535486221,40.00323229831213L87.12866735181808,41.08036347840974L87.1871233513832,44.028134245060045L87.71322734746933,47.09091059113716L87.83013934659958,54.45876668006265L88.06396334486008,50.928410286947184L88.56083934116363,52.525401966827516L88.736207339859,46.18054972406455L89.4376793346405,37.03572133601071L89.78841533203124,33.48669461618459L89.81764333181381,38.2730085022674L89.9053273311615,34.12791201647431L89.93455533094405,38.99237679753142L89.99301133050919,48.57912017156666L90.0514673300743,49.81832417997377L90.16837932920456,60.01268029757897L90.28529132833481,56.97602182821883L90.43143132724762,48.85111688854924L90.48988732681273,39.31918513844548L90.92830732355118,33.36007088087371L91.9220593161583,48.164073680513795L92.03897131528855,44.0957776729947L92.09742731485366,46.891371117970465L92.24356731376648,51.219791466751786L92.50661931180954,44.84437916830609L92.74044331007005,47.984317521513745L92.85735530920029,50.698436152922795L93.1496353070259,46.444299196642845L93.20809130659104,48.39018163335987L93.26654730615616,45.39981269005477L93.29577530593872,40.055939198607604L93.41268730506897,40.194381822978414L93.50037130441666,46.620407949113755L93.73419530267715,48.37257499627144L93.8511073018074,58.13789831111123L94.26029929876327,55.91837598677478L94.43566729745865,60.04913101837752L94.58180729637147,52.95401848289842L94.61103529615401,63.07960322161806L94.66949129571915,56.06314633134535L94.75717529506683,48.953815516877896L94.81563129463197,55.125230003531556L94.87408729419708,46.035103721483864L94.90331529397965,50.76973576739307L95.10791129245759,46.08699160546851L95.19559529180526,36.59071130514664L95.34173529071808,48.02416301974729L95.89706728658676,35.99195512740175L96.18934728441239,36.55099350662417L96.36471528310776,41.35092437131061L96.54008328180312,37.8067740919511L96.65699528093337,38.720422767692924L96.68622328071594,44.997219562964005L97.00773127832412,39.73413653824832L97.03695927810669,41.95952199161607L97.47537927484512,43.50481896389181L97.76765927267076,49.54399604190928L98.0307112707138,42.87300348098407L98.52758726701737,46.93452638018603L99.05369126310347,44.58564604335223L99.08291926288605,42.93123634438149L99.14137526245118,44.447078326116724L99.4336552602768,52.116323023490196L99.55056725940705,49.310830369527466L100.10589925527573,53.04973649121864L100.42740725288391,41.021141630124504L100.6612312511444,52.73684191210856L100.83659924983978,73.41225326668172L100.86582724962236,52.472101113523564L100.92428324918747,48.09156996865464L100.98273924875258,46.505624479826906L101.1288792476654,46.82798163477747L101.85957924222946,44.52619742943861L101.88880724201204,51.62013778987789L102.18108723983765,51.517535909267295L102.23954323940278,42.036717182953055L102.38568323831558,44.08804634486492L102.79487523527146,36.51272202359317L102.97024323396683,35.021703333953184L103.17483923244475,42.331618541429066L103.2332952320099,37.88844401265658L103.67171522874833,38.15908056656005L103.78862722787858,33.6422237889233L103.84708322744369,32.58144970506845L104.227047224617,36.36304076805604L104.57778322200775,44.31051158796444L104.9285192193985,37.735508579215804L104.95774721918106,56.562909007694174L104.98697521896362,54.246973908822085L105.22079921722411,47.81036910918036L105.39616721591949,42.93915866449794L105.89304321222306,40.17316225588107L106.06841121091843,50.10793483310262L106.09763921070099,46.89802041830724L106.3314632089615,39.00290661232361L106.50683120765686,44.0406294345151L106.68219920635224,46.04442350285609L106.82833920526504,36.47119816510764L107.50058320026397,33.96696567503031L107.5590391998291,35.418261408884746L107.70517919874192,33.126961617175596L107.85131919765472,38.863437641774794L108.23128319482804,30.35217904616178L108.43587919330596,36.92719463684597L108.8742991900444,45.399623113727245L109.22503518743514,40.215139226710676L109.31271918678284,43.66140917870368L109.72191118373871,49.498406259999484L109.75113918352127,53.538054821639065L109.80959518308639,40.02100328894997L110.74489117612839,39.391382817883965L110.77411917591095,48.66371316844203L110.8033471756935,48.954618915915205L111.00794317417146,55.94229587366837L111.32945117177964,50.512258712266714L111.76787116851807,41.566227874160944L111.85555516786575,48.95967589429894L111.91401116743089,43.675381998660896L112.79085116090775,33.42684571726758L113.17081515808106,35.13491726315311L113.43386715612411,38.900472223217065L113.69691915416718,46.34607297656136L113.87228715286255,44.755214572085094L113.9891991519928,41.155717004187295L114.48607514829635,42.5924967912438L114.54453114786149,46.27026010197872L114.57375914764405,41.1652134738483L114.6029871474266,36.296244436415094L114.92449514503478,42.44201847766098L115.45059914112092,43.430458320230116L115.94747513742446,48.86451738237629L116.18129913568497,38.403558653575885L116.85354313068389,47.287988355486604L117.11659512872696,38.26516890056587L117.17505112829208,35.693207070834916L117.23350712785721,48.82067667079647L117.35041912698746,37.80782484123711L117.37964712677002,43.11913946560708L117.7011551243782,41.47744555003857L117.7888391237259,37.22223046689504L118.02266312198638,30.074674962778033L118.11034712133409,35.072448071296606L118.37339911937714,29.92672179131398L118.81181911611556,32.12834961119481L118.92873111524581,24.500370443296646L118.98718711481095,29.061206191052605L119.42560711154938,28.509608435193627L119.80557110872269,36.59707623470061L120.47781510372162,36.28978465860942L120.91623510046006,36.941871416110104L120.94546310024262,37.83606064570057L121.15005909872055,34.110733406887704L121.29619909763336,42.01172741512269L121.44233909654616,41.25667160178838L121.55925109567642,43.60741098302961L121.61770709524156,43.000090622115266L122.08535509176255,36.13904056574256L122.40686308937073,39.08846036928611L122.61145908784866,44.645119051857534L122.64068708763122,49.56356971128439L122.84528308610916,47.671152427145714L122.93296708545684,45.41275804644937L123.63443908023834,45.53874961814293L123.72212307958603,39.66138495899355L123.92671907806397,40.67878608856543L124.01440307741166,36.06492723932723L124.04363107719422,39.95692053385878L124.10208707675933,31.759253555968883L124.13131507654191,29.918391924914914L124.71587507219316,36.25317182295436L124.86201507110596,38.0126009560185L125.12506706914901,37.182801731333L125.18352306871415,48.37549155143472L125.82653906393051,41.00278278438989L126.06036306219102,40.43706414675026L126.46955505914687,31.150305552824022L126.49878305892945,31.887192160641746L126.64492305784226,26.096101061468374L126.79106305675508,31.256153246395712L126.995659055233,39.35818890334582L127.8432710489273,42.60825992426604L127.90172704849243,39.33077519230568L127.96018304805756,36.69500864294906L128.19400704631806,43.54279687120774L128.6908830426216,39.19542702599688L128.83702304153442,37.00113784690302L129.48003903675078,30.900091300382485L129.5677230360985,36.82207678609092L129.7138630350113,33.34620728428965L129.91845903348923,39.00411183112428L130.03537103261948,43.07045247017754L130.0938270321846,35.00435469150676L130.26919503087996,35.957016661074164L130.29842303066252,40.08935769647459L130.47379102935793,37.782178942349674L130.67838702783584,38.83017551968746L130.85375502653122,34.55353412240575L130.9414390258789,29.562814416311227L131.43831502218245,29.84406903168042L131.4967710217476,38.5441263207926L131.7890510195732,33.98250268708958L131.8767350189209,40.894480425192626L132.08133101739884,41.20383356555803L132.54897901391985,33.28097671805796L132.60743501348495,29.49601082682173L132.78280301218032,35.474817780266534L132.89971501131058,38.83644551952435L132.9581710108757,38.023141309710695L133.36736300783156,29.574675308103906L133.86423900413513,55.86309526540535L134.2149750015259,60.59793351679825L134.4487989997864,43.24263558168815L134.9749029958725,40.78800443666307L135.03335899543762,32.62661869895544L135.09181499500275,34.85628493526295L135.17949899435044,45.072684915628656L135.26718299369813,39.772827180214676L135.76405899000167,35.928966674207345L136.08556698760987,37.71988906990222L136.11479498739243,41.41813473028256L136.49475898456575,39.39160891889182L137.37159897804258,35.76670300248256L137.43005497760774,28.693664743952723L138.13152697238922,36.342131045521484L138.24843897151948,32.107911369058854L138.3068949710846,32.19055666468546L138.48226296977998,36.17936072531458L138.56994696912767,36.010142383045235L138.62840296869277,41.99287294729754L138.89145496673584,35.70246923416059L139.09605096521378,40.14938686562681L139.4760149623871,45.894374537632785L139.70983896064757,49.54935989263832L140.0898029578209,42.6441678824246L140.14825895738602,41.335412959285776L140.2359429567337,36.876978430637706L140.58667895412444,31.38604364411927L140.7035909532547,28.00652511927413L140.8497309521675,29.739977493536514L140.90818695173263,27.02153581191658L141.20046694955826,25.37004457540189L141.3173789486885,28.90088600309045L141.6973429458618,32.88380236009263L142.16499094238281,38.071775025232455L142.31113094129563,45.47787996877429L142.51572693977354,39.07558998817862L143.24642693433762,33.09321750943906L143.27565493412018,35.89735694867218L143.5094789323807,34.75478574913231L143.8017589302063,33.56810877942581L144.0355829284668,35.89008075447464L144.24017892694474,43.884823771988096L144.357090926075,41.32446811129515L144.67859892368315,38.75577267964505L144.85396692237853,53.35716168835998L145.0293349210739,50.571692980918016L145.6723509162903,48.499202761160774L145.99385891389846,52.41683515603508L146.13999891281128,48.714716675342856L146.40305091085435,40.32530230355661L146.4322789106369,33.913716239515395L146.75378690824508,49.67098707518595L146.78301490802764,41.74447855907556L147.10452290563583,39.78304920715212L147.19220690498352,38.53681221300201L147.48448690280915,31.58694117944421L147.51371490259172,38.92333644580614L147.54294290237428,38.62899404636255L148.85820289258956,34.01613351990298L149.00434289150238,36.16158752380622L149.03357089128494,31.178369486387027L149.32585088911057,24.850260514328852L151.45949487323762,29.779349095309044L151.78100287084578,31.83691413396471L151.81023087062835,29.884459001646093L151.86868687019347,31.215013934104945L151.92714286975863,29.944120608456615L152.0148268691063,31.288776180581607L152.04405486888885,30.620652159766195L152.10251086845398,27.260641753391866L152.77475486345293,29.056688013867614L152.9208948623657,25.864852026829567L153.0085788617134,22.65488048315214L153.2424028599739,26.12891996882803L153.56391085758207,32.1250597042895L153.82696285562514,33.3967292129895L153.91464685497283,37.55220453130684L153.9438748547554,46.18505622729384L154.38229485149384,44.24309675253207L154.84994284801485,34.828101345845994L155.0253108467102,37.15977701539265L155.14222284584048,39.32134080769001L155.4052748438835,43.38297334289496L155.46373084344864,43.395533715896505L155.7267828414917,39.06855134111268L155.84369484062196,33.56864717548885L156.01906283931734,37.570023777393885L156.16520283823013,35.36858429887323L156.8082188334465,32.01773910426505L156.92513083257677,33.034999607424254L157.1881828306198,31.266903043028805L157.62660282735825,41.10879850040905L157.8311988258362,41.266671648933425L158.00656682453155,40.65968794695934L158.12347882366183,33.6991846546058L158.15270682344436,35.905436961581046L158.70803881931306,31.22101520073494L158.73726681909562,36.74631931330035L158.79572281866075,48.735598800084944L158.97109081735613,39.79234703245706L159.0587748167038,35.87392881452229L159.847930810833,31.504108576415746L160.02329880952834,35.362373769857555L160.14021080865862,39.759927403755825L160.22789480800628,35.80301889604223L160.4617188062668,30.360070931370558L160.5201748058319,26.26277564532856L161.01705080213546,28.71586972350775L161.04627880191805,38.54085682426802L161.6016107977867,41.43089220619467L161.63083879756928,34.200861193402716L161.71852279691697,30.14751365926719L161.98157479496004,30.197738362301322L162.21539879322054,27.840488776399724L162.27385479278564,26.061104849465465L162.3030827925682,28.310100625727955L162.74150278930662,39.325527947867755L163.03378278713225,32.39556038661621L163.12146678647997,30.322808133869273L163.44297478408814,24.756606449154134L163.53065878343583,23.66624222019084L163.58911478300095,26.959910392562193L163.64757078256605,33.21709465065206L163.99830677995683,29.330355193418L164.49518277626038,33.05131269368249L164.93360277299882,34.213036918300844L165.10897077169417,35.54167267523414L165.31356677017212,27.727655932850553L165.54739076843262,30.16511212714431L165.66430276756284,43.64183841430341L165.86889876604081,46.66006772810701L165.89812676582335,39.161319037877405L165.9273547656059,35.233484919272L166.21963476343154,33.349416695412714L166.97956275777818,28.577299679455052L167.12570275669097,26.241601082499216L167.59335075321198,28.49681314510829L167.73949075212477,39.992316345913224L167.91485875082017,39.48583569097772L168.0317707499504,40.251314522258696L168.06099874973296,37.03355683531788L168.29482274799346,32.73937957077109L168.38250674734115,37.43470991818896L168.41173474712375,40.04870517356798L168.47019074668884,32.43943669325182L168.55787474603653,35.21920851167303L168.8209267440796,38.529810553204584L168.93783874320982,37.274408579714674L169.0547507423401,28.826926938656356L169.14243474168777,30.826062235203608L169.17166274147033,32.72525283146334L169.3470307401657,33.04278289159285L169.52239873886109,30.046510328219085L169.5808547384262,25.38138550016862L169.6685387377739,30.953304340053393L170.25309873342513,27.302286021213803L170.69151873016355,32.0991646905311L171.04225472755434,37.666882274025426L171.59758672342298,38.770057840488874L171.65604272298813,39.531011897735596L172.1236907195091,31.167088963268668L172.2113747188568,29.185924560171088L172.26983071842196,36.477022446480134L172.2990587182045,38.22795987586491L172.8543907140732,40.25226390555042L173.55586270885468,41.04782409567116L173.64354670820236,35.83072511285371L174.02351070537568,39.49366735532246L174.25733470363616,35.66076453398193L174.52038670167923,28.22158126620272L174.60807070102692,29.694547021003643L174.66652670059204,33.174497086623774L174.6957547003746,29.915215584252906L175.10494669733046,29.29521953797905L175.33877069559097,32.63645417843884L175.98178669080733,44.62793777796526L176.15715468950273,47.88493209171867L176.2448386888504,37.299153118135166L176.44943468732833,28.725194197903022L176.82939868450165,34.02678828776092L176.88785468406675,40.73329416789167L176.91708268384932,44.11489939511705L177.12167868232726,49.580682286306555L177.6477826784134,42.39269702912458L178.1154306749344,50.416263063047595L178.32002667341231,38.39412305769042L178.46616667232513,35.468290506821404L178.4953946721077,30.065211768902714L178.67076267080304,31.31862594526484L179.0507266679764,31.04574060690848L179.10918266754152,33.714350743100084L179.28455066623687,28.858128687850723L180.0444786605835,27.357730879175108L180.19061865949632,30.871904469207323L180.57058265666961,22.968753038691233L180.68749465579987,30.684829575058018L181.21359865188597,32.12152005673644L181.44742265014648,30.404757390665424L182.1196666451454,33.276271265695044L182.2073506444931,29.131655375092777L182.23657864427568,28.34987140367727L182.3534906434059,30.421442371097754L182.38271864318847,38.578037766870125L182.49963064231872,29.004048600761763L183.1426466375351,29.26771192837913L183.81489063253403,23.578679002302096L184.19485462970732,21.397679029582832L184.66250262622833,33.669359011632764L184.98401062383653,27.76494023759011L185.4516586203575,23.602643553904016L185.5393426197052,20.74673685382521L185.8608506173134,27.394756524423798L185.89007861709595,38.109638001022546L185.97776261644364,34.19560096581489L186.47463861274719,26.33908052728586L186.59155061187744,33.60082411315278L187.17611060752867,43.51818268870434L187.2345666070938,35.29561662477818L187.64375860404968,39.56635445922552L187.7898986029625,35.902008960065615L188.19909059991838,29.49540769331901L188.22831859970094,36.80998305905507L188.28677459926604,38.854165419180276L188.43291459817888,41.89772008662217L189.2512985920906,35.71285012051098L189.51435059013366,32.84866319374811L189.7189465886116,28.228442778104835L189.83585858774185,29.25042932866657L190.01122658643723,25.111721343828464L190.18659458513258,35.66632869674882L190.3327345840454,28.31655322474103L190.4204185833931,41.68121145486987L190.4788745829582,45.972458733201336L190.91729457969666,49.59962101254456L191.18034657773973,41.26989990029884L191.41417057600023,36.26790471922399L191.91104657230377,32.19315710158281L192.0571865712166,29.28117229732831L192.11564257078172,26.236772645727626L192.46637856817244,25.745684938889326L192.52483456773757,40.2823512116247L192.70020256643295,32.39352007209811L193.0509385638237,31.920612347293797L193.19707856273652,32.02511143290948L193.48935856056215,35.557789505971954L193.78163855838775,30.526106373546668L193.84009455795288,27.184509988625337L194.2785145546913,23.216428430545477L194.6000225522995,24.74387662877774L194.65847855186465,27.863025678643254L194.77539055099487,37.972208705071836L195.1261265483856,28.088166482706725L195.21381054773332,30.734991179982273L196.41215853881837,37.604468460587185L196.49984253816604,36.82580023257353L196.6167545372963,44.61013470439022L197.02594653425217,41.872611667505765L197.34745453186036,42.28553632305224L197.55205053033828,39.96239053458271L197.75664652881622,46.72978420541291L198.04892652664185,37.70689556166346L198.1366105259895,38.297160544101615L198.28275052490235,42.432776315706576L198.42889052381514,32.31464460884939L198.60425852251052,40.441127824996556L198.95499451990128,43.57333576921292L198.98422251968384,33.31033796944803L199.48109851598738,28.659880226177165L199.56878251533507,32.25454853065918L199.77337851381301,33.9371843642825L200.12411451120377,30.88031398076012L200.56253450794222,31.855165684945092L200.62099050750732,23.14031897965151L200.82558650598529,28.833701580097795L201.1178665038109,40.61985249396409L201.35169050207136,34.457848426183745L201.41014650163652,29.905016779028443L201.46860250120164,41.08594249017199L201.61474250011443,35.14758064755193L201.8777944981575,26.676257796626913L202.17007449598313,34.144589534977825L202.19930249576566,43.35764385436511L202.4915824935913,41.76971738780935L202.60849449272158,36.02325367039239L202.63772249250414,31.9408039609784L203.1930544883728,40.59757712458608L203.3391944872856,36.25923948879415L203.39765048685072,33.83579827793275L203.514562485981,34.197711172016284L203.77761448402407,29.800803834113623L204.30371848011015,43.16522743784736L204.8882784757614,38.38651978523319L205.03441847467423,36.205457748457945L205.2974704727173,27.595833761538785L205.47283847141264,25.50253870113619L205.5020664711952,30.484458209740097L205.5312944709778,29.727895915306192L205.6189784703255,34.02917350966379L205.70666246967315,34.994814118540376L206.3496784648895,28.790850626718594L206.84655446119308,22.819934128207137L206.87578246097564,23.441140906927814L206.99269446010592,29.356414016256934L207.1388344590187,35.039493452171456L207.34343045749665,34.78924943990867L207.60648245553972,46.70978217395202L207.66493845510485,39.414656414044686L207.95721845293045,37.54384625937348L208.1325864516258,38.777583880211466L208.19104245119095,30.88662991177557L208.3664104498863,34.86266586048882L208.42486644945143,32.077631155991384L208.48332244901658,24.754514896991935L208.8340584464073,24.853409883310178L208.89251444597244,25.24489220700127L208.95097044553756,32.36466239051177L209.6232144405365,39.76609507603587L209.74012643966674,33.822965988679925L209.88626643857955,25.89160033704482L209.97395043792724,27.374470280363482L210.44159843444822,31.96956891232466L210.73387843227385,35.90235958867521L210.76310643205642,35.42214031001413L210.82156243162157,35.004198135077814L210.99693043031692,36.848386108766675L211.1722984290123,28.209116602925633L211.3768944274902,28.762886320412292L211.52303442640306,33.756008656561534L211.727630424881,30.879543118668863L211.90299842357635,31.366160314023006L212.28296242074964,27.921057378698237L212.48755841922758,32.98858153418729L213.04289041509628,36.08545613101387L213.6274504107475,26.378626394566453L213.7151344100952,23.09655325333827L213.83204640922548,30.65773350082705L213.86127440900802,27.62526354341847L214.065870407486,46.822845117109935L214.5627464037895,39.197789872757255L214.8842544013977,30.790701723244894L215.20576239900586,26.493590968176136L215.41035839748383,43.2501176949979L215.5857263961792,42.00309144704673L216.2871983909607,39.43002884932429L216.95944238595962,35.77599623273278L217.66091438074113,34.82288411812013L217.89473837900164,39.151720398975755L218.01165037813186,42.94847417702192L218.39161437530518,40.24424261021494L218.71312237291335,36.780015672824646L218.83003437204363,37.38095855655334L219.06385837030413,25.719399497132343L219.0930863700867,27.420476840733983L219.20999836921692,23.668846954640884L219.47305036726,31.299689074548922L219.50227836704255,29.374677913691556L219.79455836486815,27.062733344856582L219.82378636465072,25.490326434273783L219.85301436443328,21.733172559564508L220.08683836269378,24.1081937052204L220.20375036182404,38.55678545799515L220.67139835834504,38.78224817990082L221.3728703531265,34.811446964830765L221.48978235225678,27.577394472447452L221.5482383518219,23.765240804540042L221.57746635160447,28.31801798033902L221.66515035095213,26.20306018100942L221.9282023489952,32.98677156413686L221.95743034877776,29.246344641456034L222.22048234682083,33.504807313228895L222.30816634616855,29.58212455645463L222.60044634399415,33.88184859573764L222.74658634290697,38.626314783736944L223.7987943350792,39.33905815519293L224.06184633312225,38.3930497227787L224.1203023326874,32.50126142371144L224.23721433181763,29.531164521562403L224.412582330513,24.941765048664053L224.5002663298607,21.97602825827005L224.70486232833863,23.791315591390486L224.79254632768632,23.6504028717238L224.9386863265991,25.68581683458163L225.02637032594683,26.717230491934117L225.26019432420733,20.8077201057489L225.37710632333756,31.77658707808544L225.49401832246778,36.898456003791466L225.7862983202934,39.2616776752416L225.81552632007597,28.70753159990511L226.16626231746676,29.886524302959913L226.28317431659698,36.32963951412111L226.48777031507493,30.283080404479705L226.60468231420518,26.419402095376597L226.92619031181334,28.873159836770043L227.2769263092041,26.225988171709787L227.7445743057251,24.20892133351515L228.47527430028913,26.44829178362312L228.9136942970276,35.59332885362065L229.1475182952881,31.35772850020598L229.32288629398346,25.15847418895828L229.4397982931137,21.81439944976944L229.55671029224396,27.13907597647824L229.79053429050447,26.97749170678796L229.96590228919985,27.802612711297968L229.9951302889824,21.62147441197672L230.49200628528595,20.689836144617402L230.755058283329,17.48757803737493L230.9304262820244,16.572180607315943L231.1642502802849,27.548934352157573L231.25193427963256,28.471035060787386L231.36884627876282,40.42254172114514L231.66112627658842,40.1274456089115L231.89495027484892,41.482413166151844L231.9826342741966,29.485170465980815L232.3918262711525,28.868481880689558L232.50873827028275,26.586383568910094L232.74256226854325,33.229901194089024L232.8302462678909,39.67810955954124L233.00561426658632,37.27967640986034L233.53171826267243,31.565798006074942L233.59017426223755,25.473482949267208L234.1162782583237,29.173135199618883L234.2331902574539,26.568078789291576L234.3208742568016,20.641496757756613L234.75929425354005,24.8342039312449L234.84697825288774,24.112019840390616L234.96389025201796,37.49222305486637L235.1684862504959,37.14532166767947L235.5484502476692,33.02209988500485L235.7238182463646,25.68470571644201L236.13301024332046,28.91971337717729L236.4837462407112,27.55905944295185L236.68834223918913,40.715706389775704L236.92216623744963,39.21517109837839L237.15599023571014,34.023427050911835L237.1852182354927,31.926958532470877L237.33135823440554,31.689167462180535L237.44827023353577,28.33390045133214L237.82823423070906,25.583559894534147L237.94514622983934,22.178407370164194L238.3543382267952,22.219542976064872L238.70507422418595,28.218943669220266L238.73430222396848,24.104922718293068L238.93889822244645,25.971676802350885L239.17272222070696,29.40544298341939L239.3480902194023,33.93511188376294L239.5234582180977,34.01908474003267L239.72805421657563,32.4648775707399L239.78651021614075,24.43972067197481L240.04956221418382,33.82694473992015L240.10801821374892,39.0991718927998L240.13724621353148,34.9158750116525L240.69257820940018,28.339245597412543L240.78026220874787,22.69940734776108L241.0433142067909,29.428838311839883L241.42327820396423,25.37585800778757L241.7447862015724,30.559866423323257L241.8324702009201,29.341589532530065L242.12475019874574,29.922945166044627L242.59239819526672,30.186314851197267L242.9139061928749,30.38126754755524L243.0015901922226,32.13804940110052L243.44001018896103,24.898675481366837L243.73229018678666,25.621769186225464L243.7615181865692,31.352964174002125L243.90765818548203,32.282341753460486L243.9368861852646,26.44564515508563L244.08302618417738,24.083283574263362L244.14148218374254,28.540058340923537L244.25839418287276,26.06739514981905L244.28762218265533,26.555981284079365L244.3168501824379,27.05623256229441L244.75527017917634,31.915440879387006L244.95986617765425,24.613918065833474L244.9890941774368,32.5557066930572L245.1060061765671,33.34021618062005L245.1644621761322,37.51444991776182L245.42751417417526,40.265475778314396L245.5444261733055,33.49439132783394L245.6321101726532,24.81281685456159L246.3920381669998,26.474882068341202L246.42126616678237,30.198551071262386L246.68431816482544,29.04581226139976L246.77200216417313,24.928548958161997L246.88891416330338,32.98173604830254L246.97659816265104,30.36280273493435L247.26887816047667,26.855229961828684L247.29810616025924,32.978908306352224L247.3273341600418,23.029826859739984L247.3565621598244,18.067403056825555L247.50270215873718,19.070549851696143L247.67807015743256,23.6200213813797L247.7949821565628,21.33235066427062L247.85343815612794,19.709656765522652L248.20417415351866,17.630282363456388L248.32108615264895,22.896767378576698L248.4964541513443,31.066571840845654L248.52568215112686,26.48672182649966L248.75950614938736,42.45592036340415L248.93487414808274,39.90794925947574L249.08101414699553,40.23680258863601L249.31483814525603,31.279280465009805L249.51943414373397,27.460109969857854L249.8117141415596,31.814135614323988L250.33781813764574,35.99543648936026L250.57164213590622,37.328007783596746L251.24388613090517,42.36583699255951L251.44848212938308,34.39047534354145L251.62385012807846,36.37463561879795L251.71153412742615,44.57530755980795L252.61760212068558,34.94358350430235L252.6468301204681,36.523989658865815L253.11447811698915,31.714550478765574L253.14370611677168,25.45574702915249L253.4359861145973,38.59910751531157L253.523670113945,35.70292960348863L253.58212611351016,39.079780741522086L253.90363411111832,29.853553342504597L254.07900210981367,32.245120740947385L254.1666861091614,34.38934188739435L254.2835981082916,28.11268683342749L254.75124610481262,31.469735181155897L254.80970210437775,34.46922121898575L254.8389301041603,27.58910794433305L254.95584210329054,29.580849084051238L255.04352610263825,34.28753906890282L255.10198210220338,30.723328287168954L255.18966610155104,24.466841942709152L255.51117409915923,21.861027088413095L255.62808609828951,18.02863585795407L255.94959409589768,24.040939271754723L256.03727809524537,25.80569031812209L256.62183809089663,28.91906134424471L256.85566208915714,22.83499197893957L257.1479420869827,20.473546264893116L257.1771700867653,18.847714000619106L257.49867808437347,34.69618120320669L258.1709220793724,39.864486692967404L258.31706207828523,28.791462688853443L258.81393807458875,27.66054045672513L259.3108140708923,28.11220929537629L259.4861820695877,28.437867477920264L259.5446380691528,26.939883674155908L259.866146066761,23.241744751317952" fill="none"></path></g></g></g></g><g opacity="0.2"><g><g><g><path style="fill: none;" stroke="rgb(204, 51, 17)" stroke-width="2px" d="M29.37413978147507,101.43433208492593L29.75410377864838,74.05397522735336L29.92947177734375,89.16549942701579L30.397119773864745,83.91251718942453L30.45557577342987,75.53985138506948L30.543259772777557,97.1274545299679L30.777083771038058,82.40222468995887L30.864767770385743,101.34837119140786L31.303187767124175,87.43162759739948L31.39087176647186,100.50210764080748L31.975431762123108,73.39645799532218L32.209255760383606,58.80105226422006L32.32616775951386,72.44298479100826L32.910727755165105,86.38677226162906L33.29069175233841,107.236152350704L33.758339748859406,78.91795767907865L33.846023748207095,83.15688801332362L34.10907574625015,84.80574403113144L34.430583743858335,110.08327850663198L34.57672374277115,88.34644072848386L34.63517974233627,63.22662065783595L34.66440774211883,89.93836855518146L34.781319741249085,66.03737674621527L35.27819573755264,71.24307374178795L35.74584373407364,85.8025144403598L35.92121173276901,94.0631620983471L36.067351731681825,78.91814461831791L36.50577172842026,64.79416849208053L36.68113972711563,69.20683807818773L36.82727972602844,89.1396446916753L37.03187572450638,73.90143280812015L37.14878772363662,54.08346400785911L37.20724372320175,92.1423614149877L37.76257571907044,84.1087306920507L38.23022371559143,102.37059649371497L38.288679715156555,71.20863537971161L38.52250371341705,75.13074524547017L38.8732397108078,67.41119321551048L39.136291708850855,63.63702498659677L39.37011570711135,58.6727807895503L39.837763703632355,71.3261993901773L39.9546757027626,67.45890426357403L41.53298769102096,35.60364782424847L41.56221569080353,62.754017489969215L42.059091687107085,73.44822977908291L42.146775686454774,81.55314666525635L42.234459685802456,73.39874280824642L42.67287968254089,87.54317839566909L42.760563681888584,74.30431802525754L42.78979168167114,98.53991030146608L43.082071679496764,73.18496740264345L43.57894767580033,93.87583340234227L43.63740367536545,74.35056471594692L44.25119167079926,83.05206702766725L44.33887567014694,88.02553356051703L44.748067667102816,81.47416483667052L44.89420766601562,72.66231644622246L45.507995661449435,65.19689792651855L45.683363660144806,81.02675692405023L45.97564365797043,72.39998876597929L46.15101165666581,69.87122013450494L46.20946765623092,57.09733996520379L46.355607655143736,46.843130717733175L46.3848356549263,76.14821398268953L46.82325565166474,67.70784501718379L47.34935964775086,75.22502493513514L47.407815647315985,62.22834434918025L47.75855164470672,61.51469341780569L47.96314764318466,68.12583077064778L47.992375642967225,73.80348703226309L48.050831642532344,46.70416216437263L48.13851564188004,43.92273476552998L48.19697164144516,53.60388177506013L48.54770763883591,73.92663844887988L48.839987636661526,33.417601131410834L49.190723634052276,40.8847748028611L49.33686363296509,44.62440081456555L50.0967916273117,60.455443760612525L50.213703626441955,53.340162436035826L50.3306156255722,64.89719278393738L50.35984362535477,66.61142560791848L50.5644396238327,66.6115190775381L50.827491621875765,75.30750668170037L50.94440362100602,42.16048971359987L51.06131562013626,52.91186386787285L51.20745561904907,57.09962477812803L51.32436761817932,62.55770013221013L51.58741961622238,82.34971553475441L51.70433161535263,50.130872660588466L51.762787614917755,55.44396624911394L51.82124361448288,47.87333209424855L52.025839612960816,60.460532662125615L52.171979611873624,79.39606516899016L52.23043561143875,70.96605056023657L52.37657561035156,61.389277959291235L52.435031609916685,69.35587019392824L52.55194360904693,47.36571936107441L52.66885560817718,53.54136098504216L52.84422360687255,44.57000149594194L52.873451606655124,65.85909902504443L53.54569560165405,29.873825129367333L53.662607600784305,84.19109819796972L54.62713159360886,52.59651814227391L54.831727592086786,64.93588920646346L55.007095590782164,57.44771602713672L55.41628758773803,59.84972946888195L55.533199586868285,55.185834316240744L55.73779558534623,43.890955094856395L55.796251584911346,39.865415902222594L55.971619583606724,45.008654420857056L56.03007558317185,37.84534009730476L56.43926758012771,84.47573396076416L56.46849557991028,102.95345227068981L56.760775577735906,48.00692095172383L56.84845957708359,63.47099178559722L57.11151157512665,73.70367186401347L57.2284235742569,37.26295166842806L57.34533557338715,48.75723274501922L57.60838757143021,48.91835359823165L57.63761557121276,61.82782702907343L57.81298356990814,56.11264790793405L57.842211569690704,58.70837194360206L57.98835156860351,34.88566613383114L58.33908756599426,39.9522284078306L58.514455564689634,73.38987357989504L58.60213956403732,64.87539359153743L58.86519156208038,61.95393831697845L59.18669955968857,59.54773951337654L59.74203155555725,66.13801237001496L60.12199555273056,38.65881658244223L60.29736355142594,56.92935428770534L60.38504755077362,51.09616457902871L60.44350355033875,45.769060933072296L60.56041554946899,75.13061023379737L60.73578354816437,52.6910366987446L60.881923547077186,57.887220564141785L61.1742035449028,51.09530258142547L61.349571543598174,78.0633337902782L61.46648354272842,87.35752176730426L61.49571154251099,32.17599224632306L61.78799154033661,80.81360464924478L61.93413153924942,56.58363093572723L63.015567531204226,37.000322808299416L63.13247953033447,43.183265448111456L63.16170753011703,71.98744502148031L63.1909355298996,51.46624195967661L63.71703952598572,51.84520933970248L64.06777552337647,51.55933770082629L64.09700352315903,99.57385046276659L64.27237152185441,69.15052782511839L64.47696752033234,67.38221763342574L65.23689551467896,40.50421843930155L65.29535151424408,51.84111744746542L65.5876315120697,32.837165179033036L65.90913950967789,23.82366127699379L65.99682350902557,41.92303533769109L66.08450750837326,34.20144774712617L66.66906750402451,49.055660469465465L66.84443550271988,55.591056273868844L67.04903150119782,58.13098933213212L67.2243994998932,64.73883447726064L67.51667949771881,63.80043065273344L67.69204749641419,54.62102856136744L67.77973149576187,63.98690254389169L68.10123949337006,54.01536619720332L68.18892349271775,56.640533163054215L68.27660749206542,55.200529817548954L68.30583549184799,62.74510671956466L69.70877948141097,71.03468841758354L69.79646348075867,42.828953276640846L69.88414748010635,57.5136121089746L69.91337547988891,29.776793278679975L70.55639147510529,65.85917172363747L70.90712747249603,51.277173690195355L70.96558347206116,41.986708919684474L71.08249547119141,74.56390392999162L71.19940747032166,69.4018780178119L71.3163194694519,53.31582917839262L72.04701946401596,38.764364554029044L72.07624746379852,36.24095484741338L72.3977554614067,56.10977112075216L72.63157945966721,34.388895876533866L72.74849145879746,60.833434902388944L72.80694745836257,53.65829147919703L73.30382345466614,31.71146900779752L73.74224345140458,40.105279717215126L73.85915545053481,63.1618669824602L74.58985544509888,68.36028373321517L75.05750344161987,45.60838665693143L75.08673144140243,40.59070899399751L75.52515143814088,60.96810385324659L75.6420634372711,89.68276030203822L75.90511543531417,44.76512451967244L76.10971143379211,35.25598238128475L76.13893943357468,45.82810257613744L76.51890343074798,67.14102447273183L76.78195542879104,75.69710882733727L76.92809542770385,68.18356383903813L77.07423542661667,39.11956987964277L77.16191942596436,82.7628824100509L77.30805942487717,24.221208340299086L77.39574342422485,36.7189169401388L77.7464794216156,39.88434869295395L77.9803034198761,32.38331824817169L78.18489941835404,58.16821101177072L78.38949541683196,30.106969517259927L78.65254741487503,54.86984468881769L78.76945941400528,52.24667174151887L78.79868741378785,54.20920141728561L78.82791541357041,60.64626718184013L78.88637141313552,63.60932682264695L78.97405541248321,47.41354464978417L79.17865141096114,24.763082881823607L79.4417034090042,62.28406262799194L79.73398340682984,24.39254853859086L79.85089540596009,47.473572916612056L79.9093514055252,74.61946642610394L79.99703540487289,60.37539222415762L80.1431754037857,36.83338606764346L80.2308594031334,63.58714336625519L80.26008740291596,57.149672566682284L80.28931540269852,61.84213826638984L80.8446473985672,56.40724337797553L81.10769939661027,29.08078733438856L81.28306739530564,42.43779330401014L81.48766339378356,37.21232229112945L81.51689139356613,58.729620703797536L81.7799433916092,37.937802322143625L81.98453939008714,71.13532404138323L82.33527538747788,72.43347166083277L82.59832738552095,30.719008586585346L82.71523938465117,54.42545896056538L83.0075193824768,59.592293365399314L83.12443138160705,36.265495815322424L83.38748337965012,33.36862305072566L83.76744737682343,75.95170968569118L83.85513137617112,82.13935696302451L84.03049937486648,56.65238303372041L84.08895537443162,55.34189742447995L85.08270736703874,77.44512572605731L85.2580753657341,58.186769924023565L85.75495136203766,42.794577227644254L85.81340736160278,66.58593955829986L85.87186336116791,37.46942605818674L86.04723135986328,65.99586584958706L86.13491535921098,39.93955808161434L86.19337135877609,37.35769870619117L86.71947535486221,32.50017604373352L87.12866735181808,42.69606024855614L87.1871233513832,48.44979039503551L87.71322734746933,51.6850751102528L87.83013934659958,65.51055081345089L88.06396334486008,45.63287569727402L88.56083934116363,54.92088948664798L88.736207339859,36.663271359920145L89.4376793346405,23.31847875392998L89.78841533203124,28.163154536445404L89.81764333181381,45.4524793313916L89.9053273311615,27.910267287784677L89.93455533094405,46.28907396911711L89.99301133050919,62.95923523261956L90.0514673300743,51.6771301925844L90.16837932920456,75.3042144739868L90.28529132833481,52.42103412417862L90.43143132724762,36.66375947904487L90.48988732681273,25.02128751328985L90.92830732355118,24.421399494516095L91.9220593161583,70.3700778799739L92.03897131528855,37.993333661716065L92.09742731485366,51.08476128543407L92.24356731376648,57.71242198992377L92.50661931180954,35.28126072063753L92.74044331007005,52.69422505132525L92.85735530920029,54.76961410003639L93.1496353070259,40.063093762222934L93.20809130659104,51.3090052884354L93.26654730615616,40.91425927509715L93.29577530593872,32.040128961436835L93.41268730506897,40.402045759534644L93.50037130441666,56.25944713831677L93.73419530267715,51.00082556700795L93.8511073018074,72.78588328337094L94.26029929876327,52.58909250027011L94.43566729745865,66.24526356578167L94.58180729637147,42.31134967967978L94.61103529615401,78.26798032969748L94.66949129571915,45.53846099593625L94.75717529506683,38.2898192951767L94.81563129463197,64.382351733512L94.87408729419708,32.39991429841234L94.90331529397965,57.87168383625692L95.10791129245759,39.06287536258162L95.19559529180526,22.346290854663835L95.34173529071808,65.17434059164827L95.89706728658676,17.943643288883436L96.18934728441239,37.3895510754578L96.36471528310776,48.55082066834029L96.54008328180312,32.490548672911814L96.65699528093337,40.090895781305676L96.68622328071594,54.4124147558706L97.00773127832412,31.839512001174853L97.03695927810669,45.29760017166768L97.47537927484512,45.82276442230534L97.76765927267076,58.60276165893549L98.0307112707138,32.86651463959629L98.52758726701737,53.02681072898895L99.05369126310347,41.062325538101504L99.08291926288605,40.449621795925395L99.14137526245118,46.72084129871962L99.4336552602768,63.620190069550404L99.55056725940705,45.10259138858339L100.10589925527573,58.65809567375538L100.42740725288391,22.97824933848335L100.6612312511444,70.31039233508466L100.83659924983978,104.42537029854145L100.86582724962236,21.06187288378635L100.92428324918747,41.520773251351216L100.98273924875258,44.126706246585286L101.1288792476654,47.31151736720335L101.85957924222946,41.0735211214303L101.88880724201204,62.26104833053682L102.18108723983765,51.363633088351435L102.23954323940278,27.815489093481688L102.38568323831558,47.16504008773268L102.79487523527146,25.149735541685573L102.97024323396683,32.785175299493176L103.17483923244475,53.296491352642875L103.2332952320099,31.223682219497846L103.67171522874833,38.56503539741527L103.78862722787858,26.866938622468183L103.84708322744369,30.990288579286243L104.227047224617,42.03542736253735L104.57778322200775,56.231717817827075L104.9285192193985,27.873004066092903L104.95774721918106,84.80400965041167L104.98697521896362,50.773071260513916L105.22079921722411,38.155461909717815L105.39616721591949,35.632342997474325L105.89304321222306,36.02416764295572L106.06841121091843,65.01009369893495L106.09763921070099,42.08314879611419L106.3314632089615,27.160235903348166L106.50683120765686,51.59721366780229L106.68219920635224,49.050114605367526L106.82833920526504,22.111360158485013L107.50058320026397,30.210616939914303L107.5590391998291,37.595205009666415L107.70517919874192,29.690011929611842L107.85131919765472,47.46815167867362L108.23128319482804,17.58529115274223L108.43587919330596,46.78971802287231L108.8742991900444,58.108265829049174L109.22503518743514,32.438413396185865L109.31271918678284,48.8308141066932L109.72191118373871,58.25390188194319L109.75113918352127,59.59752766409849L109.80959518308639,19.74542598991627L110.74489117612839,38.446952111284986L110.77411917591095,62.572208694279084L110.8033471756935,49.39097753712497L111.00794317417146,66.4238113102981L111.32945117177964,42.36720297016427L111.76787116851807,28.147181617002275L111.85555516786575,60.04984792450591L111.91401116743089,35.74894115520385L112.79085116090775,18.054041295177626L113.17081515808106,37.697024581981395L113.43386715612411,44.54880466331292L113.69691915416718,57.514474106577836L113.87228715286255,42.36892696537075L113.9891991519928,35.75647065234057L114.48607514829635,44.74766647182855L114.54453114786149,51.78690506808107L114.57375914764405,33.50764353165266L114.6029871474266,28.99279088026526L114.92449514503478,51.66067953952984L115.45059914112092,44.91311808408375L115.94747513742446,57.01560597559558L116.18129913568497,22.712120560375297L116.85354313068389,60.61463290835263L117.11659512872696,24.7309397181848L117.17505112829208,31.835264326238416L117.23350712785721,68.51188107073881L117.35041912698746,21.288547096898014L117.37964712677002,51.08611140216203L117.7011551243782,39.014904676685774L117.7888391237259,30.839407842179753L118.02266312198638,19.353341706602578L118.11034712133409,42.569107734074464L118.37339911937714,22.20813237134007L118.81181911611556,35.43079134101606L118.92873111524581,13.058401691449376L118.98718711481095,35.902459812686516L119.42560711154938,27.682211801405174L119.80557110872269,48.72827793396107L120.47781510372162,35.828847294472666L120.91623510046006,37.9200015523611L120.94546310024262,39.177344490086284L121.15005909872055,28.52274254866836L121.29619909763336,53.8632184274752L121.44233909654616,40.12408788178698L121.55925109567642,47.13352005489139L121.61770709524156,42.08911008074381L122.08535509176255,25.847465481183463L122.40686308937073,43.51259007460146L122.61145908784866,52.98010707571473L122.64068708763122,56.9412457004247L122.84528308610916,44.83252650093766L122.93296708545684,42.02516647540483L123.63443908023834,45.72773697568334L123.72212307958603,30.845337970269497L123.92671907806397,42.204887782923265L124.01440307741166,29.144138965469892L124.04363107719422,45.79491047565614L124.10208707675933,19.462753089134026L124.13131507654191,27.157099478333976L124.71587507219316,45.755341670013536L124.86201507110596,40.65174465561472L125.12506706914901,35.938102894304734L125.18352306871415,65.16452628158731L125.82653906393051,29.94371963382264L126.06036306219102,39.58848619029084L126.46955505914687,17.220167661934624L126.49878305892945,32.99252207236839L126.64492305784226,17.409464412708303L126.79106305675508,38.99623152378672L126.995659055233,51.51124238877094L127.8432710489273,47.48336645564643L127.90172704849243,34.41454809436516L127.96018304805756,32.74135881891414L128.19400704631806,53.814479213595746L128.6908830426216,32.6743722581806L128.83702304153442,33.709704078262234L129.48003903675078,21.748521480601653L129.5677230360985,45.70505501465357L129.7138630350113,28.132403031587728L129.91845903348923,47.49096865137619L130.03537103261948,49.169963428757455L130.0938270321846,22.905208023500563L130.26919503087996,37.38600961542522L130.29842303066252,46.28786924957524L130.47379102935793,34.32141081116231L130.67838702783584,40.40217038569415L130.85375502653122,28.13857202648319L130.9414390258789,22.076734857169413L131.43831502218245,30.265950954734194L131.4967710217476,51.5942122544609L131.7890510195732,27.14006723653506L131.8767350189209,51.26244703234727L132.08133101739884,41.66786327610612L132.54897901391985,21.396691446807836L132.60743501348495,23.818561989967407L132.78280301218032,44.44302821043368L132.89971501131058,43.878887128411066L132.9581710108757,36.80318499499026L133.36736300783156,16.901976305693665L133.86423900413513,95.29572520135753L134.2149750015259,67.70019089388757L134.4487989997864,17.209688679022975L134.9749029958725,37.10605771912549L135.03335899543762,20.38454009239399L135.09181499500275,38.2007842897242L135.17949899435044,60.397284886177204L135.26718299369813,31.823040577093707L135.76405899000167,30.163175915196348L136.08556698760987,40.4062726634445L136.11479498739243,46.965503220853066L136.49475898456575,36.35182020180571L137.37159897804258,30.329344127868694L137.43005497760774,18.08410735615803L138.13152697238922,47.814830497874595L138.24843897151948,25.75658185436498L138.3068949710846,32.31452460812534L138.48226296977998,42.16256681625828L138.56994696912767,35.75631486964119L138.62840296869277,50.96696879367596L138.89145496673584,26.266863664455173L139.09605096521378,46.819763312826126L139.4760149623871,54.51185604564171L139.70983896064757,55.03183792514665L140.0898029578209,32.28637986710396L140.14825895738602,39.37228057457753L140.2359429567337,30.18932663766566L140.58667895412444,23.149641464341585L140.7035909532547,22.93724733200645L140.8497309521675,32.34015605493005L140.90818695173263,22.94387328948676L141.20046694955826,22.89280772062989L141.3173789486885,34.19714814462327L141.6973429458618,38.858176895595875L142.16499094238281,45.85373402294215L142.31113094129563,56.58703738408701L142.51572693977354,29.472155017285104L143.24642693433762,24.119658791329698L143.27565493412018,40.10356610752194L143.5094789323807,33.0409289498225L143.8017589302063,31.788093324866054L144.0355829284668,39.37303871704785L144.24017892694474,55.876938298258324L144.357090926075,37.483934620255695L144.67859892368315,34.90272953216993L144.85396692237853,75.25924520143235L145.0293349210739,46.3934899197551L145.6723509162903,45.39046743152494L145.99385891389846,58.29328374834654L146.13999891281128,43.16153895430455L146.40305091085435,27.741180745877273L146.4322789106369,24.29633714345357L146.75378690824508,73.30689332869179L146.78301490802764,29.854715784910013L147.10452290563583,36.84090517926688L147.19220690498352,36.66745672177683L147.48448690280915,21.162134629107527L147.51371490259172,49.92792934534907L147.54294290237428,38.18748044719712L148.85820289258956,27.096842730213666L149.00434289150238,39.37976852966108L149.03357089128494,23.703542430258267L149.32585088911057,15.358097056241604L151.45949487323762,37.172981966779275L151.78100287084578,34.923261691948255L151.81023087062835,26.955776303168136L151.86868687019347,33.21084633279327L151.92714286975863,28.03778061998412L152.0148268691063,33.30575953876905L152.04405486888885,29.618466128543105L152.10251086845398,22.220626143830373L152.77475486345293,31.750757404581236L152.9208948623657,21.077098046272454L153.0085788617134,17.839923167636016L153.2424028599739,31.339979197341904L153.56391085758207,41.11926930748166L153.82696285562514,35.304233476039485L153.91464685497283,43.78541750878287L153.9438748547554,59.13433377127433L154.38229485149384,41.33015754038945L154.84994284801485,20.70560823581684L155.0253108467102,40.65729051971266L155.14222284584048,42.56368649613603L155.4052748438835,49.475422145702396L155.46373084344864,43.41437427539881L155.7267828414917,32.57807777893697L155.84369484062196,25.3187909270531L156.01906283931734,43.572088680251454L156.16520283823013,32.066425081092234L156.8082188334465,26.991471312352814L156.92513083257677,34.560890362163036L157.1881828306198,28.614758196435673L157.62660282735825,55.87164168647939L157.8311988258362,41.50348137172L158.00656682453155,39.749212393998164L158.12347882366183,23.25842971607551L158.15270682344436,39.2148154220439L158.70803881931306,24.194382559465794L158.73726681909562,45.03427548214847L158.79572281866075,66.71951803026184L158.97109081735613,26.377469381015203L159.0587748167038,29.996301487620144L159.847930810833,24.94937821925589L160.02329880952834,41.149771560020326L160.14021080865862,46.3562578546032L160.22789480800628,29.867656134471872L160.4617188062668,22.19564898436306L160.5201748058319,20.11683271626555L161.01705080213546,32.395510840776524L161.04627880191805,53.27833747540842L161.6016107977867,45.76594527908469L161.63083879756928,23.3558146742148L161.71852279691697,24.067492358063873L161.98157479496004,30.27307541685252L162.21539879322054,24.30461439754731L162.27385479278564,23.392028959064078L162.3030827925682,31.683594290121732L162.74150278930662,55.84866893107744L163.03378278713225,22.000609044738894L163.12146678647997,27.21367975474891L163.44297478408814,16.407303922081383L163.53065878343583,22.03069587674588L163.58911478300095,31.900412651119268L163.64757078256605,42.60287103778683L163.99830677995683,23.500246007566943L164.49518277626038,38.63274894407925L164.93360277299882,35.955623255228375L165.10897077169417,37.53462631063405L165.31356677017212,16.006630819275188L165.54739076843262,33.82129641858501L165.66430276756284,63.85692784504204L165.86889876604081,51.18741169881241L165.89812676582335,27.913196002533027L165.9273547656059,29.341733741363896L166.21963476343154,30.523314359623782L166.97956275777818,21.419124155518602L167.12570275669097,22.738053187065475L167.59335075321198,31.879631239021933L167.73949075212477,57.235571147120595L167.91485875082017,38.72611470857453L168.0317707499504,41.399532769180155L168.06099874973296,32.2069203049067L168.29482274799346,26.298113673950866L168.38250674734115,44.47770543931574L168.41173474712375,43.9696980566365L168.47019074668884,21.025533972777566L168.55787474603653,39.38886623930489L168.8209267440796,43.49571361550193L168.93783874320982,35.391305619479795L169.0547507423401,16.155704477068866L169.14243474168777,33.82476518002454L169.17166274147033,35.574038725852915L169.3470307401657,33.51907798178718L169.52239873886109,25.552101483158367L169.5808547384262,18.383698258092977L169.6685387377739,39.31118259988057L170.25309873342513,21.825758542954418L170.69151873016355,39.294482694506996L171.04225472755434,46.018458649266904L171.59758672342298,40.42482119018405L171.65604272298813,40.67244298360572L172.1236907195091,18.62120456156822L172.2113747188568,26.214177955524747L172.26983071842196,47.413669275943676L172.2990587182045,40.85436601994206L172.8543907140732,43.288719950078644L173.55586270885468,42.2411643808523L173.64354670820236,28.005076638627543L174.02351070537568,44.98808071902556L174.25733470363616,29.91141030197116L174.52038670167923,17.062806364533913L174.60807070102692,31.903995653205016L174.66652670059204,38.39442218505394L174.6957547003746,25.026293330696603L175.10494669733046,28.36522546856827L175.33877069559097,37.64830613912852L175.98178669080733,62.615163177254885L176.15715468950273,52.77042356234881L176.2448386888504,21.420484657759857L176.44943468732833,15.864255817554863L176.82939868450165,41.97917942254776L176.88785468406675,50.793052988087766L176.91708268384932,49.18730723595513L177.12167868232726,57.77935662309085L177.6477826784134,31.610719143351616L178.1154306749344,62.45161211393213L178.32002667341231,20.36091304965464L178.46616667232513,31.079541680517877L178.4953946721077,21.960593662024735L178.67076267080304,33.19874720980806L179.0507266679764,30.636412599373898L179.10918266754152,37.717265947387546L179.28455066623687,21.57379560497668L180.0444786605835,25.1071341661617L180.19061865949632,36.1431648542557L180.57058265666961,11.114025892917084L180.68749465579987,42.25894437960824L181.21359865188597,34.27655577925407L181.44742265014648,27.829613391558837L182.1196666451454,37.583542078239475L182.2073506444931,22.914731539189347L182.23657864427568,27.177195446554038L182.3534906434059,33.52879882222851L182.38271864318847,50.812930860528695L182.49963064231872,14.643064851599206L183.1426466375351,29.663206919805134L183.81489063253403,15.045129613186532L184.19485462970732,18.12617907050401L184.66250262622833,52.076878984707605L184.98401062383653,18.90831207652616L185.4516586203575,17.359198528374918L185.5393426197052,16.46287680370699L185.8608506173134,37.36678603032169L185.89007861709595,54.18196021592064L185.97776261644364,28.32454541300342L186.47463861274719,14.554299869492297L186.59155061187744,44.493439491953154L187.17611060752867,58.3942205520317L187.2345666070938,22.961767528888913L187.64375860404968,45.97246121089654L187.7898986029625,30.405490711325797L188.19909059991838,19.88550579319906L188.22831859970094,47.781846107659135L188.28677459926604,41.920438959368084L188.43291459817888,46.46305208778506L189.2512985920906,26.435545171344188L189.51435059013366,28.55238280360379L189.7189465886116,21.298112154639966L189.83585858774185,30.783409154509172L190.01122658643723,18.903659366571333L190.18659458513258,51.49823972612933L190.3327345840454,17.291890016729326L190.4204185833931,61.72819880006307L190.4788745829582,52.40932965069851L190.91729457969666,55.0403644315594L191.18034657773973,28.775318231930328L191.41417057600023,28.764911947611722L191.91104657230377,26.08103567512103L192.0571865712166,24.913195090946488L192.11564257078172,21.67017316832664L192.46637856817244,25.009053378631847L192.52483456773757,62.08735062072776L192.70020256643295,20.56027336280829L193.0509385638237,31.211250760087296L193.19707856273652,32.181860061333055L193.48935856056215,40.85680661556569L193.78163855838775,22.978581674908696L193.84009455795288,22.17211541124334L194.2785145546913,17.264306093425716L194.6000225522995,27.035048926126137L194.65847855186465,32.54174925344148L194.77539055099487,53.13598324471468L195.1261265483856,13.262103149159088L195.21381054773332,34.70522822589555L196.41215853881837,47.908684381494595L196.49984253816604,35.65779789055307L196.6167545372963,56.286636412115286L197.02594653425217,37.766327112179056L197.34745453186036,42.904923306371984L197.55205053033828,36.477671851878426L197.75664652881622,56.88087471165818L198.04892652664185,24.172562596039256L198.1366105259895,39.18255801775888L198.28275052490235,48.636199973114L198.42889052381514,17.137447048563672L198.60425852251052,52.63085264921733L198.95499451990128,48.27164768553746L198.98422251968384,17.915841269800694L199.48109851598738,21.68419361127087L199.56878251533507,37.64655098738217L199.77337851381301,36.46113811471753L200.12411451120377,26.29500840547655L200.56253450794222,33.31744324122258L200.62099050750732,10.068048921711124L200.82558650598529,37.37377548076722L201.1178665038109,58.29907886476349L201.35169050207136,25.214842324513256L201.41014650163652,23.075769308295435L201.46860250120164,57.85733105688735L201.61474250011443,26.24003788362188L201.8777944981575,13.969273520239426L202.17007449598313,45.347087142504165L202.19930249576566,57.17722533344602L202.4915824935913,39.38782768797569L202.60849449272158,27.40355809426694L202.63772249250414,25.817129396857467L203.1930544883728,53.582736869997575L203.3391944872856,29.751733035106326L203.39765048685072,30.20063646164067L203.514562485981,34.740580513141595L203.77761448402407,23.205442827259617L204.30371848011015,63.21186284344799L204.8882784757614,31.21845830631196L205.03441847467423,32.93386469329505L205.2974704727173,14.681397781160058L205.47283847141264,22.36259611053231L205.5020664711952,37.95733747264592L205.5312944709778,28.593052473655348L205.6189784703255,40.48108990120022L205.70666246967315,36.44327503185525L206.3496784648895,19.484905388985908L206.84655446119308,13.863559380439938L206.87578246097564,24.372951075008814L206.99269446010592,38.22932368025067L207.1388344590187,43.56411260604318L207.34343045749665,34.41388342151447L207.60648245553972,64.59058127501703L207.66493845510485,28.471967774183668L207.95721845293045,34.73763102736666L208.1325864516258,40.628190311468416L208.19104245119095,19.050198959121758L208.3664104498863,40.8267197835587L208.42486644945143,27.900079099245204L208.48332244901658,13.769840508492734L208.8340584464073,25.001752362787556L208.89251444597244,25.832115692537855L208.95097044553756,43.0443176657775L209.6232144405365,50.868244104322L209.74012643966674,24.90827235764607L209.88626643857955,13.994551859592207L209.97395043792724,29.59877519534143L210.44159843444822,38.86221686026647L210.73387843227385,41.80154560320102L210.76310643205642,34.70181139202248L210.82156243162157,34.377284872673386L210.99693043031692,39.61466806930002L211.1722984290123,15.250212344164083L211.3768944274902,29.593540896642253L211.52303442640306,41.24569216078544L211.727630424881,26.564844811829857L211.90299842357635,32.09608610705425L212.28296242074964,22.753402975711083L212.48755841922758,40.589867767420856L213.04289041509628,40.73076802625371L213.6274504107475,11.818381789895284L213.7151344100952,18.173443541496L213.83204640922548,41.999503872060245L213.86127440900802,23.07655860730563L214.065870407486,75.61921747764711L214.5627464037895,27.760207006228256L214.8842544013977,18.18006949897631L215.20576239900586,20.047924835572985L215.41035839748383,68.38490778523055L215.5857263961792,40.132552075119975L216.2871983909607,35.570434952740584L216.95944238595962,30.29494730784552L217.66091438074113,33.39321594620117L217.89473837900164,45.64497482025922L218.01165037813186,48.643604844091215L218.39161437530518,36.18789526000444L218.71312237291335,31.583675266739192L218.83003437204363,38.28237288214632L219.06385837030413,8.227060908000908L219.0930863700867,29.97209285613644L219.20999836921692,18.041402125501236L219.47305036726,42.74595225441101L219.50227836704255,26.487161172405536L219.79455836486815,23.594816491604092L219.82378636465072,23.131716068399555L219.85301436443328,16.097441747500625L220.08683836269378,27.670725423704198L220.20375036182404,60.229673087157266L220.67139835834504,39.1204422627593L221.3728703531265,28.855245142225726L221.48978235225678,16.72631573387241L221.5482383518219,18.047010302678927L221.57746635160447,35.147183744037534L221.66515035095213,23.030623482015017L221.9282023489952,43.16233863882803L221.95743034877776,23.63570425743478L222.22048234682083,39.89250132088819L222.30816634616855,23.698100421293248L222.60044634399415,40.33143465466219L222.74658634290697,45.743014065735906L223.7987943350792,40.40817321237694L224.06184633312225,36.97403707415731L224.1203023326874,23.663578975110568L224.23721433181763,25.076019168338803L224.412582330513,18.05766583931654L224.5002663298607,17.527423072679085L224.70486232833863,26.514246591071128L224.79254632768632,23.439033792223768L224.9386863265991,28.738937778868376L225.02637032594683,28.264350977962863L225.26019432420733,11.9434545264711L225.37710632333756,48.22988753659024L225.49401832246778,44.58125939235049L225.7862983202934,42.80651018241679L225.81552632007597,12.87631248690036L226.16626231746676,31.65501335754209L226.28317431659698,45.994312330862954L226.48777031507493,21.213241740017565L226.60468231420518,20.62388463172192L226.92619031181334,32.553796448860226L227.2769263092041,22.25523067411939L227.7445743057251,21.18332107622325L228.47527430028913,29.807347458785102L228.9136942970276,49.3108844586169L229.1475182952881,25.004327970083978L229.32288629398346,15.859592722086745L229.4397982931137,16.79828734098612L229.55671029224396,35.12609076654144L229.79053429050447,26.735115302252552L229.96590228919985,29.040294218062968L229.9951302889824,12.349766962994863L230.49200628528595,19.29237874357841L230.755058283329,12.684190876511252L230.9304262820244,15.19908446222746L231.1642502802849,44.01406496942002L231.25193427963256,29.85418612373212L231.36884627876282,58.34980171168172L231.66112627658842,39.684801440561046L231.89495027484892,43.514864502012415L231.9826342741966,11.489306415724286L232.3918262711525,27.943449002752686L232.50873827028275,23.16323610124084L232.74256226854325,43.195177631857405L232.8302462678909,49.35042210771962L233.00561426658632,33.682026685339L233.53171826267243,22.9949804003968L233.59017426223755,16.33501036405562L234.1162782583237,34.7226135751464L234.2331902574539,22.660494173800657L234.3208742568016,11.751623710454169L234.75929425354005,31.12326469147729L234.84697825288774,23.02874370410916L234.96389025201796,57.56252787658002L235.1684862504959,36.62496958689917L235.5484502476692,26.837267210992877L235.7238182463646,14.678614463597796L236.13301024332046,33.772224868280205L236.4837462407112,25.518078541613704L236.68834223918913,60.45067681001149L236.92216623744963,36.96436816128244L237.15599023571014,26.235810979712028L237.1852182354927,28.7822557548094L237.33135823440554,31.332480856745065L237.44827023353577,23.300999935059508L237.82823423070906,21.4580490593371L237.94514622983934,17.070678583609265L238.3543382267952,22.281246384915903L238.70507422418595,37.21804470895336L238.73430222396848,17.933891291902228L238.93889822244645,28.771807928437624L239.17272222070696,34.55609225502212L239.3480902194023,40.7296152342783L239.5234582180977,34.1450440244372L239.72805421657563,30.133566816800794L239.78651021614075,12.401985323827148L240.04956221418382,47.90778084183819L240.10801821374892,47.00751262211929L240.13724621353148,28.640929689931568L240.69257820940018,18.474301476052574L240.78026220874787,14.239649973283917L241.0433142067909,39.522984757958056L241.42327820396423,19.29638755170913L241.7447862015724,38.335879046626815L241.8324702009201,27.514174196340264L242.12475019874574,30.794978616316484L242.59239819526672,30.581369378926183L242.9139061928749,30.673696592092256L243.0015901922226,34.77322218141842L243.44001018896103,14.039614601766289L243.73229018678666,26.706409743513404L243.7615181865692,39.9497566556671L243.90765818548203,33.67640812264801L243.9368861852646,17.69060025752333L244.08302618417738,20.539741203029962L244.14148218374254,35.225220490913784L244.25839418287276,22.358400363162332L244.28762218265533,27.288860485469854L244.3168501824379,27.80660947961701L244.75527017917634,39.20425335502591L244.95986617765425,13.661633845503161L244.9890941774368,44.4683896338928L245.1060061765671,34.51698041196437L245.1644621761322,43.77580052347446L245.42751417417526,44.39201456914327L245.5444261733055,23.337764652113265L245.6321101726532,11.790455144653038L246.3920381669998,28.96797988901062L246.42126616678237,35.78405457564418L246.68431816482544,27.316704046605764L246.77200216417313,18.752654003305338L246.88891416330338,45.061516683513446L246.97659816265104,26.434402764882066L247.26887816047667,21.59387080217016L247.29810616025924,42.16442582313755L247.3273341600418,8.106204689821652L247.3565621598244,10.62376735245391L247.50270215873718,20.575270044001968L247.67807015743256,30.444228675905038L247.7949821565628,17.900844588607015L247.85343815612794,17.275615917400728L248.20417415351866,14.511220760356991L248.32108615264895,30.79649490125712L248.4964541513443,43.32127853424913L248.52568215112686,19.61694680498067L248.75950614938736,66.40971816876083L248.93487414808274,36.08599260358312L249.08101414699553,40.73008258237644L249.31483814525603,17.842997279570454L249.51943414373397,21.73135422712994L249.8117141415596,38.345174081023174L250.33781813764574,42.26738780191465L250.57164213590622,39.32686472495152L251.24388613090517,49.92258080600368L251.44848212938308,22.4274328700144L251.62385012807846,39.350876031682674L251.71153412742615,56.87631547132298L252.61760212068558,20.495997421043967L252.6468301204681,38.894598890710995L253.11447811698915,24.50039170861521L253.14370611677168,16.067541854732895L253.4359861145973,58.31414824455021L253.523670113945,31.35866273575425L253.58212611351016,44.14505744857229L253.90363411111832,16.014212243978363L254.07900210981367,35.83247183861158L254.1666861091614,37.60567360706477L254.2835981082916,18.69770425247725L254.75124610481262,36.505307702748496L254.80970210437775,38.96845027573056L254.8389301041603,17.268938032353958L254.95584210329054,32.56846079362856L255.04352610263825,41.34757404618017L255.10198210220338,25.377012114568174L255.18966610155104,15.082112426019421L255.51117409915923,17.952304806968982L255.62808609828951,12.280049012265522L255.94959409589768,33.059394392455715L256.03727809524537,28.45281688767318L256.62183809089663,33.58911788342857L256.85566208915714,13.70888793098186L257.1479420869827,16.93137769382338L257.1771700867653,16.408965604208106L257.49867808437347,58.46888200708804L258.1709220793724,47.616944927608415L258.31706207828523,12.181926682682501L258.81393807458875,25.964157108532618L259.3108140708923,28.78971255335307L259.4861820695877,28.9263547517362L259.5446380691528,24.692907968509417L259.866146066761,17.694536367061005" fill="none"></path></g></g></g></g></g></g><g transform="translate(37, 174)" clip-path="url(#clip_1)"><clipPath id="clip_1"><rect width="292" height="25"></rect></clipPath><g><g><line x1="0" y1="0" x2="0" y2="5" style="visibility: inherit;" fill="rgb(0, 0, 0)" stroke="rgb(204, 204, 204)" stroke-width="1px"></line><line x1="29.227999782562257" y1="0" x2="29.227999782562257" y2="5" style="visibility: inherit;" fill="rgb(0, 0, 0)" stroke="rgb(204, 204, 204)" stroke-width="1px"></line><line x1="58.455999565124515" y1="0" x2="58.455999565124515" y2="5" style="visibility: inherit;" fill="rgb(0, 0, 0)" stroke="rgb(204, 204, 204)" stroke-width="1px"></line><line x1="87.68399934768676" y1="0" x2="87.68399934768676" y2="5" style="visibility: inherit;" fill="rgb(0, 0, 0)" stroke="rgb(204, 204, 204)" stroke-width="1px"></line><line x1="116.91199913024903" y1="0" x2="116.91199913024903" y2="5" style="visibility: inherit;" fill="rgb(0, 0, 0)" stroke="rgb(204, 204, 204)" stroke-width="1px"></line><line x1="146.13999891281128" y1="0" x2="146.13999891281128" y2="5" style="visibility: inherit;" fill="rgb(0, 0, 0)" stroke="rgb(204, 204, 204)" stroke-width="1px"></line><line x1="175.36799869537353" y1="0" x2="175.36799869537353" y2="5" style="visibility: inherit;" fill="rgb(0, 0, 0)" stroke="rgb(204, 204, 204)" stroke-width="1px"></line><line x1="204.59599847793578" y1="0" x2="204.59599847793578" y2="5" style="visibility: inherit;" fill="rgb(0, 0, 0)" stroke="rgb(204, 204, 204)" stroke-width="1px"></line><line x1="233.82399826049806" y1="0" x2="233.82399826049806" y2="5" style="visibility: inherit;" fill="rgb(0, 0, 0)" stroke="rgb(204, 204, 204)" stroke-width="1px"></line><line x1="263.05199804306034" y1="0" x2="263.05199804306034" y2="5" style="visibility: inherit;" fill="rgb(0, 0, 0)" stroke="rgb(204, 204, 204)" stroke-width="1px"></line><line x1="292.27999782562256" y1="0" x2="292.27999782562256" y2="5" style="visibility: inherit;" fill="rgb(0, 0, 0)" stroke="rgb(204, 204, 204)" stroke-width="1px"></line></g><g transform="translate(0, 8)"><text style="text-anchor: middle; visibility: hidden; font-family: &quot;Helvetica Neue&quot;, sans-serif; font-size: 12px; font-weight: 200;" x="0" y="0" dx="0em" dy="0.95em" fill="rgb(50, 49, 63)" stroke="none" stroke-width="1px">-10k</text><text style="text-anchor: middle; visibility: inherit; font-family: &quot;Helvetica Neue&quot;, sans-serif; font-size: 12px; font-weight: 200;" x="29.227999782562257" y="0" dx="0em" dy="0.95em" fill="rgb(50, 49, 63)" stroke="none" stroke-width="1px">0</text><text style="text-anchor: middle; visibility: inherit; font-family: &quot;Helvetica Neue&quot;, sans-serif; font-size: 12px; font-weight: 200;" x="58.455999565124515" y="0" dx="0em" dy="0.95em" fill="rgb(50, 49, 63)" stroke="none" stroke-width="1px">10k</text><text style="text-anchor: middle; visibility: inherit; font-family: &quot;Helvetica Neue&quot;, sans-serif; font-size: 12px; font-weight: 200;" x="87.68399934768676" y="0" dx="0em" dy="0.95em" fill="rgb(50, 49, 63)" stroke="none" stroke-width="1px">20k</text><text style="text-anchor: middle; visibility: inherit; font-family: &quot;Helvetica Neue&quot;, sans-serif; font-size: 12px; font-weight: 200;" x="116.91199913024903" y="0" dx="0em" dy="0.95em" fill="rgb(50, 49, 63)" stroke="none" stroke-width="1px">30k</text><text style="text-anchor: middle; visibility: inherit; font-family: &quot;Helvetica Neue&quot;, sans-serif; font-size: 12px; font-weight: 200;" x="146.13999891281128" y="0" dx="0em" dy="0.95em" fill="rgb(50, 49, 63)" stroke="none" stroke-width="1px">40k</text><text style="text-anchor: middle; visibility: inherit; font-family: &quot;Helvetica Neue&quot;, sans-serif; font-size: 12px; font-weight: 200;" x="175.36799869537353" y="0" dx="0em" dy="0.95em" fill="rgb(50, 49, 63)" stroke="none" stroke-width="1px">50k</text><text style="text-anchor: middle; visibility: inherit; font-family: &quot;Helvetica Neue&quot;, sans-serif; font-size: 12px; font-weight: 200;" x="204.59599847793578" y="0" dx="0em" dy="0.95em" fill="rgb(50, 49, 63)" stroke="none" stroke-width="1px">60k</text><text style="text-anchor: middle; visibility: inherit; font-family: &quot;Helvetica Neue&quot;, sans-serif; font-size: 12px; font-weight: 200;" x="233.82399826049806" y="0" dx="0em" dy="0.95em" fill="rgb(50, 49, 63)" stroke="none" stroke-width="1px">70k</text><text style="text-anchor: middle; visibility: inherit; font-family: &quot;Helvetica Neue&quot;, sans-serif; font-size: 12px; font-weight: 200;" x="263.05199804306034" y="0" dx="0em" dy="0.95em" fill="rgb(50, 49, 63)" stroke="none" stroke-width="1px">80k</text><text style="text-anchor: middle; visibility: hidden; font-family: &quot;Helvetica Neue&quot;, sans-serif; font-size: 12px; font-weight: 200;" x="292.27999782562256" y="0" dx="0em" dy="0.95em" fill="rgb(50, 49, 63)" stroke="none" stroke-width="1px">90k</text></g><line x1="0" y1="0" x2="292.27999782562256" y2="0" fill="rgb(0, 0, 0)" stroke="rgb(204, 204, 204)" stroke-width="1px"></line></g></g></g></g></svg>